<svg id="Layer_1" data-name="Layer 1" xmlns="http://www.w3.org/2000/svg" viewBox="0 0 1080.54 284.9"><defs><style>.cls-1,.cls-14{fill:#2ebbe8;}.cls-1,.cls-2,.cls-3,.cls-4,.cls-5,.cls-6,.cls-7,.cls-8,.cls-9{stroke:#fff;stroke-width:0.57px;}.cls-1,.cls-12,.cls-16,.cls-18,.cls-2,.cls-20,.cls-3,.cls-4,.cls-5,.cls-6,.cls-7,.cls-8,.cls-9{stroke-miterlimit:10;}.cls-2{fill:#0174ba;}.cls-3{fill:#b7e0ee;}.cls-4{fill:#f1a084;}.cls-15,.cls-5{fill:#bf404e;}.cls-6{fill:#f2e6bb;}.cls-7{fill:#e97b74;}.cls-8{fill:#e2eada;}.cls-9{fill:#f5ba90;}.cls-10{font-size:15px;}.cls-10,.cls-11{font-family:Arial-BoldMT, Arial;font-weight:700;}.cls-11{font-size:24px;}.cls-12,.cls-16,.cls-18,.cls-20{fill:none;}.cls-12,.cls-18,.cls-20{stroke:#000;}.cls-12,.cls-18{stroke-width:2px;}.cls-13{fill:#7ac943;}.cls-16{stroke:#231f20;stroke-width:1.27px;}.cls-17{fill:#999;}.cls-18{stroke-dasharray:5.75 5.75;}.cls-19{letter-spacing:-0.02em;}</style></defs><title>quantification_explanation</title><rect class="cls-1" x="518.47" y="58.23" width="8.7" height="7.25" transform="translate(1045.64 123.72) rotate(-180)"/><rect class="cls-2" x="518.47" y="65.49" width="8.7" height="7.25" transform="translate(1045.64 138.23) rotate(-180)"/><rect class="cls-2" x="518.47" y="72.74" width="8.7" height="7.25" transform="translate(1045.64 152.74) rotate(-180)"/><rect class="cls-3" x="518.47" y="80" width="8.7" height="7.25" transform="translate(1045.64 167.25) rotate(-180)"/><rect class="cls-2" x="518.47" y="87.25" width="8.7" height="7.25" transform="translate(1045.64 181.76) rotate(-180)"/><rect class="cls-4" x="518.47" y="94.51" width="8.7" height="7.25" transform="translate(1045.64 196.27) rotate(-180)"/><rect class="cls-1" x="518.47" y="101.76" width="8.7" height="7.25" transform="translate(1045.64 210.77) rotate(-180)"/><rect class="cls-2" x="518.47" y="109.01" width="8.7" height="7.25" transform="translate(1045.64 225.28) rotate(-180)"/><rect class="cls-2" x="518.47" y="116.27" width="8.7" height="7.25" transform="translate(1045.64 239.79) rotate(-180)"/><rect class="cls-3" x="518.47" y="123.52" width="8.7" height="7.25" transform="translate(1045.64 254.3) rotate(-180)"/><rect class="cls-2" x="518.47" y="130.78" width="8.7" height="7.25" transform="translate(1045.64 268.81) rotate(-180)"/><rect class="cls-5" x="509.77" y="58.23" width="8.7" height="7.25" transform="translate(1028.24 123.72) rotate(-180)"/><rect class="cls-2" x="509.77" y="65.49" width="8.7" height="7.25" transform="translate(1028.24 138.23) rotate(-180)"/><rect class="cls-4" x="509.77" y="72.74" width="8.7" height="7.25" transform="translate(1028.24 152.74) rotate(-180)"/><rect class="cls-5" x="509.77" y="80" width="8.7" height="7.25" transform="translate(1028.24 167.25) rotate(-180)"/><rect class="cls-2" x="509.77" y="87.25" width="8.7" height="7.25" transform="translate(1028.24 181.76) rotate(-180)"/><rect class="cls-5" x="509.77" y="94.19" width="8.7" height="7.25" transform="translate(1028.24 195.64) rotate(-180)"/><rect class="cls-2" x="509.77" y="101.76" width="8.7" height="7.25" transform="translate(1028.24 210.77) rotate(-180)"/><rect class="cls-1" x="509.77" y="109.01" width="8.7" height="7.25" transform="translate(1028.24 225.28) rotate(-180)"/><rect class="cls-2" x="509.77" y="116.27" width="8.7" height="7.25" transform="translate(1028.24 239.79) rotate(-180)"/><rect class="cls-5" x="509.77" y="123.52" width="8.7" height="7.25" transform="translate(1028.24 254.3) rotate(-180)"/><rect class="cls-5" x="509.77" y="130.78" width="8.7" height="7.25" transform="translate(1028.24 268.81) rotate(-180)"/><rect class="cls-2" x="501.07" y="58.23" width="8.7" height="7.25" transform="translate(1010.83 123.72) rotate(-180)"/><rect class="cls-6" x="501.07" y="65.49" width="8.7" height="7.25" transform="translate(1010.83 138.23) rotate(-180)"/><rect class="cls-2" x="501.07" y="72.74" width="8.7" height="7.25" transform="translate(1010.83 152.74) rotate(-180)"/><rect class="cls-2" x="501.07" y="80" width="8.7" height="7.25" transform="translate(1010.83 167.25) rotate(-180)"/><rect class="cls-2" x="501.07" y="87.25" width="8.7" height="7.25" transform="translate(1010.83 181.76) rotate(-180)"/><rect class="cls-6" x="501.07" y="94.51" width="8.7" height="7.25" transform="translate(1010.83 196.27) rotate(-180)"/><rect class="cls-3" x="500.77" y="101.76" width="8.7" height="7.25" transform="translate(1010.24 210.77) rotate(-180)"/><rect class="cls-2" x="501.07" y="109.01" width="8.7" height="7.25" transform="translate(1010.83 225.28) rotate(-180)"/><rect class="cls-6" x="501.07" y="116.27" width="8.7" height="7.25" transform="translate(1010.83 239.79) rotate(-180)"/><rect class="cls-1" x="501.07" y="123.52" width="8.7" height="7.25" transform="translate(1010.83 254.3) rotate(-180)"/><rect class="cls-2" x="501.07" y="130.78" width="8.7" height="7.25" transform="translate(1010.83 268.81) rotate(-180)"/><rect class="cls-4" x="492.36" y="58.23" width="8.7" height="7.25" transform="translate(993.43 123.72) rotate(-180)"/><rect class="cls-2" x="492.36" y="65.49" width="8.7" height="7.25" transform="translate(993.43 138.23) rotate(-180)"/><rect class="cls-3" x="492.36" y="72.74" width="8.7" height="7.25" transform="translate(993.43 152.74) rotate(-180)"/><rect class="cls-2" x="492.36" y="80" width="8.7" height="7.25" transform="translate(993.43 167.25) rotate(-180)"/><rect class="cls-5" x="492.36" y="87.25" width="8.7" height="7.25" transform="translate(993.43 181.76) rotate(-180)"/><rect class="cls-2" x="492.36" y="94.51" width="8.7" height="7.25" transform="translate(993.43 196.27) rotate(-180)"/><rect class="cls-2" x="492.36" y="101.76" width="8.7" height="7.25" transform="translate(993.43 210.77) rotate(-180)"/><rect class="cls-2" x="492.36" y="109.01" width="8.7" height="7.25" transform="translate(993.43 225.28) rotate(-180)"/><rect class="cls-2" x="492.36" y="116.27" width="8.7" height="7.25" transform="translate(993.43 239.79) rotate(-180)"/><rect class="cls-2" x="492.36" y="123.52" width="8.7" height="7.25" transform="translate(993.43 254.3) rotate(-180)"/><rect class="cls-2" x="492.36" y="130.78" width="8.7" height="7.25" transform="translate(993.43 268.81) rotate(-180)"/><rect class="cls-2" x="483.66" y="58.23" width="8.7" height="7.25" transform="translate(976.03 123.72) rotate(-180)"/><rect class="cls-2" x="483.66" y="65.49" width="8.7" height="7.25" transform="translate(976.03 138.23) rotate(-180)"/><rect class="cls-2" x="483.66" y="72.74" width="8.7" height="7.25" transform="translate(976.03 152.74) rotate(-180)"/><rect class="cls-2" x="483.66" y="80" width="8.7" height="7.25" transform="translate(976.03 167.25) rotate(-180)"/><rect class="cls-3" x="483.66" y="87.25" width="8.7" height="7.25" transform="translate(976.03 181.76) rotate(-180)"/><rect class="cls-7" x="483.66" y="94.51" width="8.7" height="7.25" transform="translate(976.03 196.27) rotate(-180)"/><rect class="cls-7" x="483.66" y="101.76" width="8.7" height="7.25" transform="translate(976.03 210.77) rotate(-180)"/><rect class="cls-2" x="483.66" y="109.01" width="8.7" height="7.25" transform="translate(976.03 225.28) rotate(-180)"/><rect class="cls-3" x="483.66" y="116.27" width="8.7" height="7.25" transform="translate(976.03 239.79) rotate(-180)"/><rect class="cls-2" x="483.66" y="123.52" width="8.7" height="7.25" transform="translate(976.03 254.3) rotate(-180)"/><rect class="cls-2" x="483.43" y="130.78" width="8.7" height="7.25" transform="translate(975.56 268.81) rotate(-180)"/><rect class="cls-2" x="474.96" y="58.23" width="8.7" height="7.25" transform="translate(958.62 123.72) rotate(-180)"/><rect class="cls-3" x="474.96" y="65.49" width="8.7" height="7.25" transform="translate(958.62 138.23) rotate(-180)"/><rect class="cls-2" x="474.96" y="72.74" width="8.7" height="7.25" transform="translate(958.62 152.74) rotate(-180)"/><rect class="cls-2" x="474.96" y="80" width="8.7" height="7.25" transform="translate(958.62 167.25) rotate(-180)"/><rect class="cls-2" x="474.96" y="87.25" width="8.7" height="7.25" transform="translate(958.62 181.76) rotate(-180)"/><rect class="cls-2" x="474.96" y="94.51" width="8.7" height="7.25" transform="translate(958.62 196.27) rotate(-180)"/><rect class="cls-2" x="474.96" y="101.76" width="8.7" height="7.25" transform="translate(958.62 210.77) rotate(-180)"/><rect class="cls-8" x="474.96" y="109.01" width="8.7" height="7.25" transform="translate(958.62 225.28) rotate(-180)"/><rect class="cls-2" x="474.96" y="116.27" width="8.7" height="7.25" transform="translate(958.62 239.79) rotate(-180)"/><rect class="cls-7" x="474.96" y="123.52" width="8.7" height="7.25" transform="translate(958.62 254.3) rotate(-180)"/><rect class="cls-2" x="474.96" y="130.78" width="8.7" height="7.25" transform="translate(958.62 268.81) rotate(-180)"/><rect class="cls-1" x="466.26" y="58.23" width="8.7" height="7.25" transform="translate(941.22 123.72) rotate(-180)"/><rect class="cls-2" x="466.26" y="65.49" width="8.7" height="7.25" transform="translate(941.22 138.23) rotate(-180)"/><rect class="cls-2" x="466.26" y="72.74" width="8.7" height="7.25" transform="translate(941.22 152.74) rotate(-180)"/><rect class="cls-3" x="466.26" y="80" width="8.7" height="7.25" transform="translate(941.22 167.25) rotate(-180)"/><rect class="cls-1" x="466.26" y="87.25" width="8.7" height="7.25" transform="translate(941.22 181.76) rotate(-180)"/><rect class="cls-2" x="466.26" y="94.51" width="8.7" height="7.25" transform="translate(941.22 196.27) rotate(-180)"/><rect class="cls-2" x="466.26" y="101.76" width="8.7" height="7.25" transform="translate(941.22 210.77) rotate(-180)"/><rect class="cls-5" x="466.26" y="109.01" width="8.7" height="7.25" transform="translate(941.22 225.28) rotate(-180)"/><rect class="cls-2" x="466.26" y="116.27" width="8.7" height="7.25" transform="translate(941.22 239.79) rotate(-180)"/><rect class="cls-2" x="466.26" y="123.52" width="8.7" height="7.25" transform="translate(941.22 254.3) rotate(-180)"/><rect class="cls-7" x="466.26" y="130.78" width="8.7" height="7.25" transform="translate(941.22 268.81) rotate(-180)"/><rect class="cls-1" x="457.56" y="58.23" width="8.7" height="7.25" transform="translate(923.82 123.72) rotate(-180)"/><rect class="cls-2" x="457.56" y="65.49" width="8.7" height="7.25" transform="translate(923.82 138.23) rotate(-180)"/><rect class="cls-2" x="457.56" y="72.74" width="8.7" height="7.25" transform="translate(923.82 152.74) rotate(-180)"/><rect class="cls-2" x="457.56" y="80" width="8.7" height="7.25" transform="translate(923.82 167.25) rotate(-180)"/><rect class="cls-2" x="457.32" y="87.25" width="8.7" height="7.25" transform="translate(923.35 181.76) rotate(-180)"/><rect class="cls-2" x="457.56" y="94.51" width="8.7" height="7.25" transform="translate(923.82 196.27) rotate(-180)"/><rect class="cls-3" x="457.56" y="101.76" width="8.7" height="7.25" transform="translate(923.82 210.77) rotate(-180)"/><rect class="cls-2" x="457.56" y="109.01" width="8.7" height="7.25" transform="translate(923.82 225.28) rotate(-180)"/><rect class="cls-9" x="457.56" y="116.27" width="8.7" height="7.25" transform="translate(923.82 239.79) rotate(-180)"/><rect class="cls-2" x="457.56" y="123.52" width="8.7" height="7.25" transform="translate(923.82 254.3) rotate(-180)"/><rect class="cls-2" x="457.56" y="130.78" width="8.7" height="7.25" transform="translate(923.82 268.81) rotate(-180)"/><rect class="cls-2" x="448.86" y="58.23" width="8.7" height="7.25" transform="translate(906.42 123.72) rotate(-180)"/><rect class="cls-1" x="448.86" y="65.49" width="8.7" height="7.25" transform="translate(906.42 138.23) rotate(-180)"/><rect class="cls-2" x="448.86" y="72.74" width="8.7" height="7.25" transform="translate(906.42 152.74) rotate(-180)"/><rect class="cls-2" x="448.86" y="80" width="8.7" height="7.25" transform="translate(906.42 167.25) rotate(-180)"/><rect class="cls-2" x="448.86" y="87.25" width="8.7" height="7.25" transform="translate(906.42 181.76) rotate(-180)"/><rect class="cls-7" x="448.86" y="94.51" width="8.7" height="7.25" transform="translate(906.42 196.27) rotate(-180)"/><rect class="cls-2" x="448.86" y="101.76" width="8.7" height="7.25" transform="translate(906.42 210.77) rotate(-180)"/><rect class="cls-5" x="448.86" y="109.01" width="8.7" height="7.25" transform="translate(906.42 225.28) rotate(-180)"/><rect class="cls-2" x="448.86" y="116.27" width="8.7" height="7.25" transform="translate(906.42 239.79) rotate(-180)"/><rect class="cls-3" x="448.86" y="123.52" width="8.7" height="7.25" transform="translate(906.42 254.3) rotate(-180)"/><rect class="cls-6" x="448.86" y="130.78" width="8.7" height="7.25" transform="translate(906.42 268.81) rotate(-180)"/><rect class="cls-2" x="440.16" y="58.23" width="8.7" height="7.25" transform="translate(889.01 123.72) rotate(-180)"/><rect class="cls-3" x="440.16" y="65.49" width="8.7" height="7.25" transform="translate(889.01 138.23) rotate(-180)"/><rect class="cls-2" x="440.16" y="72.74" width="8.7" height="7.25" transform="translate(889.01 152.74) rotate(-180)"/><rect class="cls-3" x="440.16" y="80" width="8.7" height="7.25" transform="translate(889.01 167.25) rotate(-180)"/><rect class="cls-2" x="440.16" y="87.25" width="8.7" height="7.25" transform="translate(889.01 181.76) rotate(-180)"/><rect class="cls-2" x="440.16" y="94.51" width="8.7" height="7.25" transform="translate(889.01 196.27) rotate(-180)"/><rect class="cls-7" x="439.92" y="101.76" width="8.7" height="7.25" transform="translate(888.55 210.77) rotate(-180)"/><rect class="cls-5" x="440.16" y="109.01" width="8.7" height="7.25" transform="translate(889.01 225.28) rotate(-180)"/><rect class="cls-2" x="440.16" y="116.27" width="8.7" height="7.25" transform="translate(889.01 239.79) rotate(-180)"/><rect class="cls-2" x="440.16" y="123.52" width="8.7" height="7.25" transform="translate(889.01 254.3) rotate(-180)"/><rect class="cls-2" x="440.16" y="130.78" width="8.7" height="7.25" transform="translate(889.01 268.81) rotate(-180)"/><rect class="cls-8" x="431.45" y="58.23" width="8.7" height="7.25" transform="translate(871.61 123.72) rotate(-180)"/><rect class="cls-2" x="431.45" y="65.49" width="8.7" height="7.25" transform="translate(871.61 138.23) rotate(-180)"/><rect class="cls-2" x="431.45" y="72.74" width="8.7" height="7.25" transform="translate(871.61 152.74) rotate(-180)"/><rect class="cls-7" x="431.45" y="80" width="8.7" height="7.25" transform="translate(871.61 167.25) rotate(-180)"/><rect class="cls-2" x="431.45" y="87.25" width="8.7" height="7.25" transform="translate(871.61 181.76) rotate(-180)"/><rect class="cls-8" x="431.45" y="94.51" width="8.7" height="7.25" transform="translate(871.61 196.27) rotate(-180)"/><rect class="cls-2" x="431.45" y="101.76" width="8.7" height="7.25" transform="translate(871.61 210.77) rotate(-180)"/><rect class="cls-2" x="431.45" y="109.01" width="8.7" height="7.25" transform="translate(871.61 225.28) rotate(-180)"/><rect class="cls-2" x="431.45" y="116.27" width="8.7" height="7.25" transform="translate(871.61 239.79) rotate(-180)"/><rect class="cls-2" x="431.45" y="123.52" width="8.7" height="7.25" transform="translate(871.61 254.3) rotate(-180)"/><rect class="cls-6" x="431.45" y="130.78" width="8.7" height="7.25" transform="translate(871.61 268.81) rotate(-180)"/><rect class="cls-2" x="422.75" y="58.23" width="8.7" height="7.25" transform="translate(854.21 123.72) rotate(-180)"/><rect class="cls-2" x="422.75" y="65.49" width="8.7" height="7.25" transform="translate(854.21 138.23) rotate(-180)"/><rect class="cls-3" x="422.75" y="72.74" width="8.7" height="7.25" transform="translate(854.21 152.74) rotate(-180)"/><rect class="cls-2" x="422.75" y="80" width="8.7" height="7.25" transform="translate(854.21 167.25) rotate(-180)"/><rect class="cls-6" x="422.75" y="87.25" width="8.7" height="7.25" transform="translate(854.21 181.76) rotate(-180)"/><rect class="cls-2" x="422.75" y="94.51" width="8.7" height="7.25" transform="translate(854.21 196.27) rotate(-180)"/><rect class="cls-5" x="422.75" y="101.76" width="8.7" height="7.25" transform="translate(854.21 210.77) rotate(-180)"/><rect class="cls-2" x="422.75" y="109.01" width="8.7" height="7.25" transform="translate(854.21 225.28) rotate(-180)"/><rect class="cls-7" x="422.75" y="116.27" width="8.7" height="7.25" transform="translate(854.21 239.79) rotate(-180)"/><rect class="cls-2" x="422.75" y="123.52" width="8.7" height="7.25" transform="translate(854.21 254.3) rotate(-180)"/><rect class="cls-3" x="422.75" y="130.78" width="8.7" height="7.25" transform="translate(854.21 268.81) rotate(-180)"/><rect class="cls-2" x="414.05" y="58.23" width="8.7" height="7.25" transform="translate(836.8 123.72) rotate(-180)"/><rect class="cls-8" x="414.05" y="65.49" width="8.7" height="7.25" transform="translate(836.8 138.23) rotate(-180)"/><rect class="cls-2" x="414.05" y="72.74" width="8.7" height="7.25" transform="translate(836.8 152.74) rotate(-180)"/><rect class="cls-2" x="414.05" y="80" width="8.7" height="7.25" transform="translate(836.8 167.25) rotate(-180)"/><rect class="cls-2" x="414.05" y="87.25" width="8.7" height="7.25" transform="translate(836.8 181.76) rotate(-180)"/><rect class="cls-2" x="414.05" y="94.51" width="8.7" height="7.25" transform="translate(836.8 196.27) rotate(-180)"/><rect class="cls-2" x="414.05" y="101.76" width="8.7" height="7.25" transform="translate(836.8 210.77) rotate(-180)"/><rect class="cls-2" x="414.05" y="109.01" width="8.7" height="7.25" transform="translate(836.8 225.28) rotate(-180)"/><rect class="cls-2" x="414.05" y="116.27" width="8.7" height="7.25" transform="translate(836.8 239.79) rotate(-180)"/><rect class="cls-2" x="414.05" y="123.52" width="8.7" height="7.25" transform="translate(836.8 254.3) rotate(-180)"/><rect class="cls-2" x="414.05" y="130.78" width="8.7" height="7.25" transform="translate(836.8 268.81) rotate(-180)"/><rect class="cls-3" x="405.35" y="58.23" width="8.7" height="7.25" transform="translate(819.4 123.72) rotate(-180)"/><rect class="cls-2" x="405.35" y="65.49" width="8.7" height="7.25" transform="translate(819.4 138.23) rotate(-180)"/><rect class="cls-7" x="405.35" y="72.74" width="8.7" height="7.25" transform="translate(819.4 152.74) rotate(-180)"/><rect class="cls-2" x="405.35" y="80" width="8.7" height="7.25" transform="translate(819.4 167.25) rotate(-180)"/><rect class="cls-2" x="405.35" y="87.25" width="8.7" height="7.25" transform="translate(819.4 181.76) rotate(-180)"/><rect class="cls-3" x="405.35" y="94.51" width="8.7" height="7.25" transform="translate(819.4 196.27) rotate(-180)"/><rect class="cls-2" x="405.35" y="101.76" width="8.7" height="7.25" transform="translate(819.4 210.77) rotate(-180)"/><rect class="cls-3" x="405.35" y="109.01" width="8.7" height="7.25" transform="translate(819.4 225.28) rotate(-180)"/><rect class="cls-2" x="405.35" y="116.27" width="8.7" height="7.25" transform="translate(819.4 239.79) rotate(-180)"/><rect class="cls-2" x="405.35" y="123.52" width="8.7" height="7.25" transform="translate(819.4 254.3) rotate(-180)"/><rect class="cls-2" x="405.35" y="130.78" width="8.7" height="7.25" transform="translate(819.4 268.81) rotate(-180)"/><rect class="cls-2" x="396.65" y="58.23" width="8.7" height="7.25" transform="translate(802 123.72) rotate(-180)"/><rect class="cls-7" x="396.65" y="65.49" width="8.7" height="7.25" transform="translate(802 138.23) rotate(-180)"/><rect class="cls-2" x="396.65" y="72.74" width="8.7" height="7.25" transform="translate(802 152.74) rotate(-180)"/><rect class="cls-7" x="396.65" y="80" width="8.7" height="7.25" transform="translate(802 167.25) rotate(-180)"/><rect class="cls-2" x="396.65" y="87.25" width="8.7" height="7.25" transform="translate(802 181.76) rotate(-180)"/><rect class="cls-2" x="396.65" y="94.51" width="8.7" height="7.25" transform="translate(802 196.27) rotate(-180)"/><rect class="cls-2" x="396.65" y="101.76" width="8.7" height="7.25" transform="translate(802 210.77) rotate(-180)"/><rect class="cls-7" x="396.65" y="109.01" width="8.7" height="7.25" transform="translate(802 225.28) rotate(-180)"/><rect class="cls-2" x="396.65" y="116.27" width="8.7" height="7.25" transform="translate(802 239.79) rotate(-180)"/><rect class="cls-7" x="396.65" y="123.52" width="8.7" height="7.25" transform="translate(802 254.3) rotate(-180)"/><rect class="cls-9" x="396.65" y="130.78" width="8.7" height="7.25" transform="translate(802 268.81) rotate(-180)"/><rect class="cls-1" x="396.65" y="138.03" width="8.7" height="7.25"/><rect class="cls-2" x="405.35" y="138.03" width="8.7" height="7.25"/><rect class="cls-3" x="414.35" y="138.03" width="8.7" height="7.25"/><rect class="cls-2" x="422.75" y="138.03" width="8.7" height="7.25"/><rect class="cls-7" x="431.45" y="138.03" width="8.7" height="7.25"/><rect class="cls-2" x="440.16" y="138.03" width="8.7" height="7.25"/><rect class="cls-2" x="448.86" y="138.03" width="8.7" height="7.25"/><rect class="cls-3" x="457.56" y="138.03" width="8.7" height="7.25"/><rect class="cls-2" x="466.26" y="138.03" width="8.7" height="7.25"/><rect class="cls-7" x="475.2" y="138.03" width="8.7" height="7.25"/><rect class="cls-2" x="483.66" y="138.03" width="8.7" height="7.25"/><rect class="cls-5" x="492.36" y="138.03" width="8.7" height="7.25"/><rect class="cls-2" x="501.07" y="138.03" width="8.7" height="7.25"/><rect class="cls-2" x="509.77" y="138.03" width="8.7" height="7.25"/><rect class="cls-2" x="518.47" y="138.03" width="8.7" height="7.25"/><text class="cls-10" transform="translate(375.5 50.36)">Data in high dimensions</text><text class="cls-10" transform="translate(585.5 50.36)">2D embedding</text><text class="cls-11" transform="translate(418.42 22.59)">Adjusted Rand Index</text><text class="cls-10" transform="translate(390.3 195.25)">Ground truth labels</text><line class="cls-12" x1="468.18" y1="153.29" x2="468.18" y2="164.11"/><polygon points="463.19 162.65 468.18 171.29 473.16 162.65 463.19 162.65"/><line class="cls-12" x1="640.18" y1="153.29" x2="640.18" y2="164.11"/><polygon points="635.19 162.65 640.18 171.29 645.16 162.65 635.19 162.65"/><text class="cls-10" transform="translate(591.3 195.25)">kMeans clusters</text><circle class="cls-13" cx="446.01" cy="224.97" r="2.67"/><circle class="cls-13" cx="430.2" cy="220.42" r="2.67"/><circle class="cls-13" cx="428.15" cy="229.1" r="2.67"/><circle class="cls-14" cx="477.89" cy="206.88" r="2.67"/><circle class="cls-13" cx="430.2" cy="235.63" r="2.67"/><circle class="cls-13" cx="436.45" cy="225.42" r="2.67"/><circle class="cls-13" cx="436.45" cy="232.49" r="2.67"/><circle class="cls-13" cx="425.68" cy="240.65" r="2.67"/><circle class="cls-13" cx="432.25" cy="243.27" r="2.67"/><circle class="cls-14" cx="486.54" cy="218.97" r="2.67"/><circle class="cls-14" cx="488.71" cy="227.24" r="2.67"/><circle class="cls-14" cx="480.45" cy="223.89" r="2.67"/><circle class="cls-14" cx="477.27" cy="217.55" r="2.67"/><circle class="cls-13" cx="447.44" cy="238.05" r="2.67"/><circle class="cls-14" cx="482.83" cy="232.65" r="2.67"/><circle class="cls-14" cx="475.84" cy="231.57" r="2.67"/><circle class="cls-13" cx="443.16" cy="232.82" r="2.67"/><circle class="cls-13" cx="439.57" cy="238.92" r="2.67"/><circle class="cls-13" cx="434.07" cy="249.48" r="2.67"/><circle class="cls-13" cx="441.91" cy="246.08" r="2.67"/><circle class="cls-13" cx="439.86" cy="254.76" r="2.67"/><circle class="cls-13" cx="434.07" cy="258.86" r="2.67"/><circle class="cls-13" cx="441.91" cy="261.29" r="2.67"/><circle class="cls-13" cx="448.15" cy="251.08" r="2.67"/><circle class="cls-13" cx="448.15" cy="258.15" r="2.67"/><circle class="cls-13" cx="437.38" cy="266.3" r="2.67"/><circle class="cls-13" cx="443.96" cy="268.92" r="2.67"/><circle class="cls-13" cx="454.69" cy="253.59" r="2.67"/><circle class="cls-15" cx="477.89" cy="255.45" r="2.65"/><circle class="cls-15" cx="475.85" cy="264.07" r="2.65"/><circle class="cls-13" cx="454.69" cy="262.96" r="2.67"/><circle class="cls-15" cx="477.89" cy="270.56" r="2.65"/><circle class="cls-15" cx="484.09" cy="260.65" r="2.67"/><circle class="cls-15" cx="484.09" cy="267.72" r="2.67"/><circle class="cls-13" cx="458.01" cy="270.41" r="2.67"/><circle class="cls-15" cx="479.93" cy="278.14" r="2.65"/><circle class="cls-14" cx="504.73" cy="210.37" r="2.65"/><circle class="cls-14" cx="505.36" cy="218.84" r="2.65"/><circle class="cls-14" cx="497.9" cy="214.11" r="2.67"/><circle class="cls-14" cx="495.93" cy="207.3" r="2.67"/><circle class="cls-14" cx="491.06" cy="213.9" r="2.67"/><circle class="cls-14" cx="498.63" cy="223.06" r="2.65"/><circle class="cls-14" cx="491.97" cy="220.83" r="2.67"/><circle class="cls-14" cx="487.81" cy="207.98" r="2.67"/><circle class="cls-14" cx="483.17" cy="213.32" r="2.67"/><circle class="cls-15" cx="505.8" cy="254.74" r="2.67"/><circle class="cls-15" cx="504.03" cy="263.1" r="2.67"/><circle class="cls-15" cx="498.15" cy="256.39" r="2.67"/><circle class="cls-14" cx="509.1" cy="230.71" r="2.67"/><circle class="cls-15" cx="491.64" cy="254.28" r="2.67"/><circle class="cls-15" cx="496.33" cy="265.29" r="2.67"/><circle class="cls-15" cx="490.57" cy="261.18" r="2.67"/><circle class="cls-14" cx="501.11" cy="229.09" r="2.67"/><circle class="cls-14" cx="495.17" cy="232.76" r="2.65"/><circle class="cls-15" cx="499.61" cy="273.57" r="2.67"/><circle class="cls-15" cx="491.77" cy="270.17" r="2.67"/><circle class="cls-15" cx="493.83" cy="278.84" r="2.67"/><circle class="cls-14" cx="507.27" cy="224.56" r="2.67"/><circle class="cls-14" cx="515.42" cy="227.52" r="2.67"/><circle class="cls-15" cx="485.53" cy="275.16" r="2.67"/><circle class="cls-15" cx="485.53" cy="282.23" r="2.67"/><circle class="cls-13" cx="450.2" cy="267.64" r="2.67"/><circle class="cls-13" cx="427.43" cy="259.25" r="2.67"/><circle class="cls-14" cx="623.01" cy="223.97" r="2.67"/><circle class="cls-13" cx="607.2" cy="219.42" r="2.67"/><circle class="cls-13" cx="605.15" cy="228.1" r="2.67"/><circle class="cls-14" cx="654.89" cy="205.88" r="2.67"/><circle class="cls-13" cx="607.2" cy="234.63" r="2.67"/><circle class="cls-13" cx="613.45" cy="224.42" r="2.67"/><circle class="cls-13" cx="613.45" cy="231.49" r="2.67"/><circle class="cls-13" cx="602.68" cy="239.65" r="2.67"/><circle class="cls-13" cx="609.25" cy="242.27" r="2.67"/><circle class="cls-14" cx="663.54" cy="217.97" r="2.67"/><circle class="cls-14" cx="665.71" cy="226.24" r="2.67"/><circle class="cls-14" cx="657.45" cy="222.89" r="2.67"/><circle class="cls-14" cx="654.27" cy="216.55" r="2.67"/><circle class="cls-13" cx="624.44" cy="237.05" r="2.67"/><circle class="cls-15" cx="659.83" cy="231.65" r="2.67"/><circle class="cls-13" cx="652.84" cy="230.57" r="2.67"/><circle class="cls-14" cx="620.16" cy="231.82" r="2.67"/><circle class="cls-13" cx="616.57" cy="237.92" r="2.67"/><circle class="cls-13" cx="611.07" cy="248.48" r="2.67"/><circle class="cls-13" cx="618.91" cy="245.08" r="2.67"/><circle class="cls-13" cx="616.86" cy="253.76" r="2.67"/><circle class="cls-13" cx="611.07" cy="257.86" r="2.67"/><circle class="cls-13" cx="618.91" cy="260.29" r="2.67"/><circle class="cls-13" cx="625.15" cy="250.08" r="2.67"/><circle class="cls-13" cx="625.15" cy="257.15" r="2.67"/><circle class="cls-13" cx="614.38" cy="265.3" r="2.67"/><circle class="cls-13" cx="620.96" cy="267.92" r="2.67"/><circle class="cls-15" cx="631.69" cy="252.59" r="2.67"/><circle class="cls-15" cx="654.89" cy="254.45" r="2.65"/><circle class="cls-13" cx="652.85" cy="263.07" r="2.65"/><circle class="cls-13" cx="631.69" cy="261.96" r="2.67"/><circle class="cls-15" cx="654.89" cy="269.56" r="2.65"/><circle class="cls-15" cx="661.09" cy="259.65" r="2.67"/><circle class="cls-15" cx="661.09" cy="266.72" r="2.67"/><circle class="cls-15" cx="635.01" cy="269.41" r="2.67"/><circle class="cls-15" cx="656.93" cy="277.14" r="2.65"/><circle class="cls-14" cx="681.73" cy="209.37" r="2.65"/><circle class="cls-14" cx="682.36" cy="217.84" r="2.65"/><circle class="cls-14" cx="674.9" cy="213.11" r="2.67"/><circle class="cls-14" cx="672.93" cy="206.3" r="2.67"/><circle class="cls-14" cx="668.06" cy="212.9" r="2.67"/><circle class="cls-14" cx="675.63" cy="222.06" r="2.65"/><circle class="cls-14" cx="668.97" cy="219.83" r="2.67"/><circle class="cls-14" cx="664.81" cy="206.98" r="2.67"/><circle class="cls-14" cx="660.17" cy="212.32" r="2.67"/><circle class="cls-15" cx="682.8" cy="253.74" r="2.67"/><circle class="cls-15" cx="681.03" cy="262.1" r="2.67"/><circle class="cls-15" cx="675.15" cy="255.39" r="2.67"/><circle class="cls-14" cx="686.1" cy="229.71" r="2.67"/><circle class="cls-15" cx="668.64" cy="253.28" r="2.67"/><circle class="cls-15" cx="673.33" cy="264.29" r="2.67"/><circle class="cls-15" cx="667.57" cy="260.18" r="2.67"/><circle class="cls-14" cx="678.11" cy="228.09" r="2.67"/><circle class="cls-15" cx="672.17" cy="231.76" r="2.65"/><circle class="cls-15" cx="676.61" cy="272.57" r="2.67"/><circle class="cls-15" cx="668.77" cy="269.17" r="2.67"/><circle class="cls-15" cx="670.83" cy="277.84" r="2.67"/><circle class="cls-14" cx="684.27" cy="223.56" r="2.67"/><circle class="cls-14" cx="692.42" cy="226.52" r="2.67"/><circle class="cls-15" cx="662.53" cy="274.16" r="2.67"/><circle class="cls-15" cx="662.53" cy="281.23" r="2.67"/><circle class="cls-13" cx="627.2" cy="266.64" r="2.67"/><circle class="cls-13" cx="604.43" cy="258.25" r="2.67"/><polyline class="cls-16" points="674.36 145.29 596.03 145.29 596.03 66.95"/><circle class="cls-17" cx="621.01" cy="82.84" r="2.67"/><circle class="cls-17" cx="605.2" cy="78.29" r="2.67"/><circle class="cls-17" cx="603.15" cy="86.97" r="2.67"/><circle class="cls-17" cx="652.89" cy="64.75" r="2.67"/><circle class="cls-17" cx="605.2" cy="93.49" r="2.67"/><circle class="cls-17" cx="611.45" cy="83.28" r="2.67"/><circle class="cls-17" cx="611.45" cy="90.35" r="2.67"/><circle class="cls-17" cx="600.68" cy="98.51" r="2.67"/><circle class="cls-17" cx="607.25" cy="101.13" r="2.67"/><circle class="cls-17" cx="661.54" cy="76.84" r="2.67"/><circle class="cls-17" cx="663.71" cy="85.1" r="2.67"/><circle class="cls-17" cx="655.45" cy="81.75" r="2.67"/><circle class="cls-17" cx="652.27" cy="75.41" r="2.67"/><circle class="cls-17" cx="622.44" cy="95.91" r="2.67"/><circle class="cls-17" cx="657.83" cy="90.51" r="2.67"/><circle class="cls-17" cx="650.84" cy="89.44" r="2.67"/><circle class="cls-17" cx="618.16" cy="90.68" r="2.67"/><circle class="cls-17" cx="614.57" cy="96.78" r="2.67"/><circle class="cls-17" cx="609.07" cy="107.35" r="2.67"/><circle class="cls-17" cx="616.91" cy="103.94" r="2.67"/><circle class="cls-17" cx="614.86" cy="112.62" r="2.67"/><circle class="cls-17" cx="609.07" cy="116.73" r="2.67"/><circle class="cls-17" cx="616.91" cy="119.15" r="2.67"/><circle class="cls-17" cx="623.15" cy="108.94" r="2.67"/><circle class="cls-17" cx="623.15" cy="116.01" r="2.67"/><circle class="cls-17" cx="612.38" cy="124.17" r="2.67"/><circle class="cls-17" cx="618.96" cy="126.79" r="2.67"/><circle class="cls-17" cx="629.69" cy="111.45" r="2.67"/><circle class="cls-17" cx="652.89" cy="113.32" r="2.65"/><circle class="cls-17" cx="650.85" cy="121.94" r="2.65"/><circle class="cls-17" cx="629.69" cy="120.83" r="2.67"/><circle class="cls-17" cx="652.89" cy="128.42" r="2.65"/><circle class="cls-17" cx="659.09" cy="118.51" r="2.67"/><circle class="cls-17" cx="659.09" cy="125.58" r="2.67"/><circle class="cls-17" cx="633.01" cy="128.27" r="2.67"/><circle class="cls-17" cx="654.93" cy="136.01" r="2.65"/><circle class="cls-17" cx="679.73" cy="68.24" r="2.65"/><circle class="cls-17" cx="680.36" cy="76.7" r="2.65"/><circle class="cls-17" cx="672.9" cy="71.98" r="2.67"/><circle class="cls-17" cx="670.93" cy="65.16" r="2.67"/><circle class="cls-17" cx="666.06" cy="71.76" r="2.67"/><circle class="cls-17" cx="673.63" cy="80.92" r="2.65"/><circle class="cls-17" cx="666.97" cy="78.69" r="2.67"/><circle class="cls-17" cx="662.81" cy="65.84" r="2.67"/><circle class="cls-17" cx="658.17" cy="71.18" r="2.67"/><circle class="cls-17" cx="680.8" cy="112.61" r="2.67"/><circle class="cls-17" cx="679.03" cy="120.97" r="2.67"/><circle class="cls-17" cx="673.15" cy="114.26" r="2.67"/><circle class="cls-17" cx="684.1" cy="88.57" r="2.67"/><circle class="cls-17" cx="666.64" cy="112.14" r="2.67"/><circle class="cls-17" cx="671.33" cy="123.15" r="2.67"/><circle class="cls-17" cx="665.57" cy="119.05" r="2.67"/><circle class="cls-17" cx="676.11" cy="86.95" r="2.67"/><circle class="cls-17" cx="670.17" cy="90.62" r="2.65"/><circle class="cls-17" cx="674.61" cy="131.44" r="2.67"/><circle class="cls-17" cx="666.77" cy="128.03" r="2.67"/><circle class="cls-17" cx="668.83" cy="136.71" r="2.67"/><circle class="cls-17" cx="682.27" cy="82.42" r="2.67"/><circle class="cls-17" cx="690.42" cy="85.39" r="2.67"/><circle class="cls-17" cx="660.53" cy="133.03" r="2.67"/><circle class="cls-17" cx="660.53" cy="140.1" r="2.67"/><circle class="cls-17" cx="625.2" cy="125.51" r="2.67"/><circle class="cls-17" cx="602.43" cy="117.12" r="2.67"/><text class="cls-10" transform="translate(553.51 212.78)">vs.</text><line class="cls-12" x1="553.18" y1="101.76" x2="564" y2="101.76"/><polygon points="562.54 106.75 571.18 101.76 562.54 96.77 562.54 106.75"/><rect class="cls-1" x="893.97" y="58.23" width="8.7" height="7.25" transform="translate(1796.64 123.72) rotate(-180)"/><rect class="cls-2" x="893.97" y="65.49" width="8.7" height="7.25" transform="translate(1796.64 138.23) rotate(-180)"/><rect class="cls-2" x="893.97" y="72.74" width="8.7" height="7.25" transform="translate(1796.64 152.74) rotate(-180)"/><rect class="cls-3" x="893.97" y="80" width="8.7" height="7.25" transform="translate(1796.64 167.25) rotate(-180)"/><rect class="cls-2" x="893.97" y="87.25" width="8.7" height="7.25" transform="translate(1796.64 181.76) rotate(-180)"/><rect class="cls-4" x="893.97" y="94.51" width="8.7" height="7.25" transform="translate(1796.64 196.27) rotate(-180)"/><rect class="cls-1" x="893.97" y="101.76" width="8.7" height="7.25" transform="translate(1796.64 210.77) rotate(-180)"/><rect class="cls-2" x="893.97" y="109.01" width="8.7" height="7.25" transform="translate(1796.64 225.28) rotate(-180)"/><rect class="cls-2" x="893.97" y="116.27" width="8.7" height="7.25" transform="translate(1796.64 239.79) rotate(-180)"/><rect class="cls-3" x="893.97" y="123.52" width="8.7" height="7.25" transform="translate(1796.64 254.3) rotate(-180)"/><rect class="cls-2" x="893.97" y="130.78" width="8.7" height="7.25" transform="translate(1796.64 268.81) rotate(-180)"/><rect class="cls-5" x="885.27" y="58.23" width="8.7" height="7.25" transform="translate(1779.23 123.72) rotate(-180)"/><rect class="cls-2" x="885.27" y="65.49" width="8.7" height="7.25" transform="translate(1779.23 138.23) rotate(-180)"/><rect class="cls-4" x="885.27" y="72.74" width="8.7" height="7.25" transform="translate(1779.23 152.74) rotate(-180)"/><rect class="cls-5" x="885.27" y="80" width="8.7" height="7.25" transform="translate(1779.23 167.25) rotate(-180)"/><rect class="cls-2" x="885.27" y="87.25" width="8.7" height="7.25" transform="translate(1779.23 181.76) rotate(-180)"/><rect class="cls-5" x="885.27" y="94.19" width="8.7" height="7.25" transform="translate(1779.23 195.64) rotate(-180)"/><rect class="cls-2" x="885.27" y="101.76" width="8.7" height="7.25" transform="translate(1779.23 210.77) rotate(-180)"/><rect class="cls-1" x="885.27" y="109.01" width="8.7" height="7.25" transform="translate(1779.23 225.28) rotate(-180)"/><rect class="cls-2" x="885.27" y="116.27" width="8.7" height="7.25" transform="translate(1779.23 239.79) rotate(-180)"/><rect class="cls-5" x="885.27" y="123.52" width="8.7" height="7.25" transform="translate(1779.23 254.3) rotate(-180)"/><rect class="cls-5" x="885.27" y="130.78" width="8.7" height="7.25" transform="translate(1779.23 268.81) rotate(-180)"/><rect class="cls-2" x="876.56" y="58.23" width="8.7" height="7.25" transform="translate(1761.83 123.72) rotate(-180)"/><rect class="cls-6" x="876.56" y="65.49" width="8.7" height="7.25" transform="translate(1761.83 138.23) rotate(-180)"/><rect class="cls-2" x="876.56" y="72.74" width="8.7" height="7.25" transform="translate(1761.83 152.74) rotate(-180)"/><rect class="cls-2" x="876.56" y="80" width="8.7" height="7.25" transform="translate(1761.83 167.25) rotate(-180)"/><rect class="cls-2" x="876.56" y="87.25" width="8.7" height="7.25" transform="translate(1761.83 181.76) rotate(-180)"/><rect class="cls-6" x="876.56" y="94.51" width="8.7" height="7.25" transform="translate(1761.83 196.27) rotate(-180)"/><rect class="cls-3" x="876.27" y="101.76" width="8.7" height="7.25" transform="translate(1761.24 210.77) rotate(-180)"/><rect class="cls-2" x="876.56" y="109.01" width="8.7" height="7.25" transform="translate(1761.83 225.28) rotate(-180)"/><rect class="cls-6" x="876.56" y="116.27" width="8.7" height="7.25" transform="translate(1761.83 239.79) rotate(-180)"/><rect class="cls-1" x="876.56" y="123.52" width="8.7" height="7.25" transform="translate(1761.83 254.3) rotate(-180)"/><rect class="cls-2" x="876.56" y="130.78" width="8.7" height="7.25" transform="translate(1761.83 268.81) rotate(-180)"/><rect class="cls-4" x="867.86" y="58.23" width="8.7" height="7.25" transform="translate(1744.43 123.72) rotate(-180)"/><rect class="cls-2" x="867.86" y="65.49" width="8.7" height="7.25" transform="translate(1744.43 138.23) rotate(-180)"/><rect class="cls-3" x="867.86" y="72.74" width="8.7" height="7.25" transform="translate(1744.43 152.74) rotate(-180)"/><rect class="cls-2" x="867.86" y="80" width="8.7" height="7.25" transform="translate(1744.43 167.25) rotate(-180)"/><rect class="cls-5" x="867.86" y="87.25" width="8.7" height="7.25" transform="translate(1744.43 181.76) rotate(-180)"/><rect class="cls-2" x="867.86" y="94.51" width="8.7" height="7.25" transform="translate(1744.43 196.27) rotate(-180)"/><rect class="cls-2" x="867.86" y="101.76" width="8.7" height="7.25" transform="translate(1744.43 210.77) rotate(-180)"/><rect class="cls-2" x="867.86" y="109.01" width="8.7" height="7.25" transform="translate(1744.43 225.28) rotate(-180)"/><rect class="cls-2" x="867.86" y="116.27" width="8.7" height="7.25" transform="translate(1744.43 239.79) rotate(-180)"/><rect class="cls-2" x="867.86" y="123.52" width="8.7" height="7.25" transform="translate(1744.43 254.3) rotate(-180)"/><rect class="cls-2" x="867.86" y="130.78" width="8.7" height="7.25" transform="translate(1744.43 268.81) rotate(-180)"/><rect class="cls-2" x="859.16" y="58.23" width="8.7" height="7.25" transform="translate(1727.02 123.72) rotate(-180)"/><rect class="cls-2" x="859.16" y="65.49" width="8.7" height="7.25" transform="translate(1727.02 138.23) rotate(-180)"/><rect class="cls-2" x="859.16" y="72.74" width="8.7" height="7.25" transform="translate(1727.02 152.74) rotate(-180)"/><rect class="cls-2" x="859.16" y="80" width="8.7" height="7.25" transform="translate(1727.02 167.25) rotate(-180)"/><rect class="cls-3" x="859.16" y="87.25" width="8.7" height="7.25" transform="translate(1727.02 181.76) rotate(-180)"/><rect class="cls-7" x="859.16" y="94.51" width="8.7" height="7.25" transform="translate(1727.02 196.27) rotate(-180)"/><rect class="cls-7" x="859.16" y="101.76" width="8.7" height="7.25" transform="translate(1727.02 210.77) rotate(-180)"/><rect class="cls-2" x="859.16" y="109.01" width="8.7" height="7.25" transform="translate(1727.02 225.28) rotate(-180)"/><rect class="cls-3" x="859.16" y="116.27" width="8.7" height="7.25" transform="translate(1727.02 239.79) rotate(-180)"/><rect class="cls-2" x="859.16" y="123.52" width="8.7" height="7.25" transform="translate(1727.02 254.3) rotate(-180)"/><rect class="cls-2" x="858.93" y="130.78" width="8.7" height="7.25" transform="translate(1726.56 268.81) rotate(-180)"/><rect class="cls-2" x="850.46" y="58.23" width="8.7" height="7.25" transform="translate(1709.62 123.72) rotate(-180)"/><rect class="cls-3" x="850.46" y="65.49" width="8.7" height="7.25" transform="translate(1709.62 138.23) rotate(-180)"/><rect class="cls-2" x="850.46" y="72.74" width="8.7" height="7.25" transform="translate(1709.62 152.74) rotate(-180)"/><rect class="cls-2" x="850.46" y="80" width="8.7" height="7.25" transform="translate(1709.62 167.25) rotate(-180)"/><rect class="cls-2" x="850.46" y="87.25" width="8.7" height="7.25" transform="translate(1709.62 181.76) rotate(-180)"/><rect class="cls-2" x="850.46" y="94.51" width="8.7" height="7.25" transform="translate(1709.62 196.27) rotate(-180)"/><rect class="cls-2" x="850.46" y="101.76" width="8.7" height="7.25" transform="translate(1709.62 210.77) rotate(-180)"/><rect class="cls-8" x="850.46" y="109.01" width="8.7" height="7.25" transform="translate(1709.62 225.28) rotate(-180)"/><rect class="cls-2" x="850.46" y="116.27" width="8.7" height="7.25" transform="translate(1709.62 239.79) rotate(-180)"/><rect class="cls-7" x="850.46" y="123.52" width="8.7" height="7.25" transform="translate(1709.62 254.3) rotate(-180)"/><rect class="cls-2" x="850.46" y="130.78" width="8.7" height="7.25" transform="translate(1709.62 268.81) rotate(-180)"/><rect class="cls-1" x="841.76" y="58.23" width="8.7" height="7.25" transform="translate(1692.22 123.72) rotate(-180)"/><rect class="cls-2" x="841.76" y="65.49" width="8.7" height="7.25" transform="translate(1692.22 138.23) rotate(-180)"/><rect class="cls-2" x="841.76" y="72.74" width="8.7" height="7.25" transform="translate(1692.22 152.74) rotate(-180)"/><rect class="cls-3" x="841.76" y="80" width="8.7" height="7.25" transform="translate(1692.22 167.25) rotate(-180)"/><rect class="cls-1" x="841.76" y="87.25" width="8.7" height="7.25" transform="translate(1692.22 181.76) rotate(-180)"/><rect class="cls-2" x="841.76" y="94.51" width="8.7" height="7.25" transform="translate(1692.22 196.27) rotate(-180)"/><rect class="cls-2" x="841.76" y="101.76" width="8.7" height="7.25" transform="translate(1692.22 210.77) rotate(-180)"/><rect class="cls-5" x="841.76" y="109.01" width="8.7" height="7.25" transform="translate(1692.22 225.28) rotate(-180)"/><rect class="cls-2" x="841.76" y="116.27" width="8.7" height="7.25" transform="translate(1692.22 239.79) rotate(-180)"/><rect class="cls-2" x="841.76" y="123.52" width="8.7" height="7.25" transform="translate(1692.22 254.3) rotate(-180)"/><rect class="cls-7" x="841.76" y="130.78" width="8.7" height="7.25" transform="translate(1692.22 268.81) rotate(-180)"/><rect class="cls-1" x="833.06" y="58.23" width="8.7" height="7.25" transform="translate(1674.82 123.72) rotate(-180)"/><rect class="cls-2" x="833.06" y="65.49" width="8.7" height="7.25" transform="translate(1674.82 138.23) rotate(-180)"/><rect class="cls-2" x="833.06" y="72.74" width="8.7" height="7.25" transform="translate(1674.82 152.74) rotate(-180)"/><rect class="cls-2" x="833.06" y="80" width="8.7" height="7.25" transform="translate(1674.82 167.25) rotate(-180)"/><rect class="cls-2" x="832.82" y="87.25" width="8.7" height="7.25" transform="translate(1674.35 181.76) rotate(-180)"/><rect class="cls-2" x="833.06" y="94.51" width="8.7" height="7.25" transform="translate(1674.82 196.27) rotate(-180)"/><rect class="cls-3" x="833.06" y="101.76" width="8.7" height="7.25" transform="translate(1674.82 210.77) rotate(-180)"/><rect class="cls-2" x="833.06" y="109.01" width="8.7" height="7.25" transform="translate(1674.82 225.28) rotate(-180)"/><rect class="cls-9" x="833.06" y="116.27" width="8.7" height="7.25" transform="translate(1674.82 239.79) rotate(-180)"/><rect class="cls-2" x="833.06" y="123.52" width="8.7" height="7.25" transform="translate(1674.82 254.3) rotate(-180)"/><rect class="cls-2" x="833.06" y="130.78" width="8.7" height="7.25" transform="translate(1674.82 268.81) rotate(-180)"/><rect class="cls-2" x="824.36" y="58.23" width="8.7" height="7.25" transform="translate(1657.41 123.72) rotate(-180)"/><rect class="cls-1" x="824.36" y="65.49" width="8.7" height="7.25" transform="translate(1657.41 138.23) rotate(-180)"/><rect class="cls-2" x="824.36" y="72.74" width="8.7" height="7.25" transform="translate(1657.41 152.74) rotate(-180)"/><rect class="cls-2" x="824.36" y="80" width="8.7" height="7.25" transform="translate(1657.41 167.25) rotate(-180)"/><rect class="cls-2" x="824.36" y="87.25" width="8.7" height="7.25" transform="translate(1657.41 181.76) rotate(-180)"/><rect class="cls-7" x="824.36" y="94.51" width="8.7" height="7.25" transform="translate(1657.41 196.27) rotate(-180)"/><rect class="cls-2" x="824.36" y="101.76" width="8.7" height="7.25" transform="translate(1657.41 210.77) rotate(-180)"/><rect class="cls-5" x="824.36" y="109.01" width="8.7" height="7.25" transform="translate(1657.41 225.28) rotate(-180)"/><rect class="cls-2" x="824.36" y="116.27" width="8.7" height="7.25" transform="translate(1657.41 239.79) rotate(-180)"/><rect class="cls-3" x="824.36" y="123.52" width="8.7" height="7.25" transform="translate(1657.41 254.3) rotate(-180)"/><rect class="cls-6" x="824.36" y="130.78" width="8.7" height="7.25" transform="translate(1657.41 268.81) rotate(-180)"/><rect class="cls-2" x="815.65" y="58.23" width="8.7" height="7.25" transform="translate(1640.01 123.72) rotate(-180)"/><rect class="cls-3" x="815.65" y="65.49" width="8.7" height="7.25" transform="translate(1640.01 138.23) rotate(-180)"/><rect class="cls-2" x="815.65" y="72.74" width="8.7" height="7.25" transform="translate(1640.01 152.74) rotate(-180)"/><rect class="cls-3" x="815.65" y="80" width="8.7" height="7.25" transform="translate(1640.01 167.25) rotate(-180)"/><rect class="cls-2" x="815.65" y="87.25" width="8.7" height="7.25" transform="translate(1640.01 181.76) rotate(-180)"/><rect class="cls-2" x="815.65" y="94.51" width="8.7" height="7.25" transform="translate(1640.01 196.27) rotate(-180)"/><rect class="cls-7" x="815.42" y="101.76" width="8.7" height="7.25" transform="translate(1639.54 210.77) rotate(-180)"/><rect class="cls-5" x="815.65" y="109.01" width="8.7" height="7.25" transform="translate(1640.01 225.28) rotate(-180)"/><rect class="cls-2" x="815.65" y="116.27" width="8.7" height="7.25" transform="translate(1640.01 239.79) rotate(-180)"/><rect class="cls-2" x="815.65" y="123.52" width="8.7" height="7.25" transform="translate(1640.01 254.3) rotate(-180)"/><rect class="cls-2" x="815.65" y="130.78" width="8.7" height="7.25" transform="translate(1640.01 268.81) rotate(-180)"/><rect class="cls-8" x="806.95" y="58.23" width="8.7" height="7.25" transform="translate(1622.61 123.72) rotate(-180)"/><rect class="cls-2" x="806.95" y="65.49" width="8.7" height="7.25" transform="translate(1622.61 138.23) rotate(-180)"/><rect class="cls-2" x="806.95" y="72.74" width="8.7" height="7.25" transform="translate(1622.61 152.74) rotate(-180)"/><rect class="cls-7" x="806.95" y="80" width="8.7" height="7.25" transform="translate(1622.61 167.25) rotate(-180)"/><rect class="cls-2" x="806.95" y="87.25" width="8.7" height="7.25" transform="translate(1622.61 181.76) rotate(-180)"/><rect class="cls-8" x="806.95" y="94.51" width="8.7" height="7.25" transform="translate(1622.61 196.27) rotate(-180)"/><rect class="cls-2" x="806.95" y="101.76" width="8.7" height="7.25" transform="translate(1622.61 210.77) rotate(-180)"/><rect class="cls-2" x="806.95" y="109.01" width="8.7" height="7.25" transform="translate(1622.61 225.28) rotate(-180)"/><rect class="cls-2" x="806.95" y="116.27" width="8.7" height="7.25" transform="translate(1622.61 239.79) rotate(-180)"/><rect class="cls-2" x="806.95" y="123.52" width="8.7" height="7.25" transform="translate(1622.61 254.3) rotate(-180)"/><rect class="cls-6" x="806.95" y="130.78" width="8.7" height="7.25" transform="translate(1622.61 268.81) rotate(-180)"/><rect class="cls-2" x="798.25" y="58.23" width="8.7" height="7.25" transform="translate(1605.21 123.72) rotate(-180)"/><rect class="cls-2" x="798.25" y="65.49" width="8.7" height="7.25" transform="translate(1605.21 138.23) rotate(-180)"/><rect class="cls-3" x="798.25" y="72.74" width="8.7" height="7.25" transform="translate(1605.21 152.74) rotate(-180)"/><rect class="cls-2" x="798.25" y="80" width="8.7" height="7.25" transform="translate(1605.21 167.25) rotate(-180)"/><rect class="cls-6" x="798.25" y="87.25" width="8.7" height="7.25" transform="translate(1605.21 181.76) rotate(-180)"/><rect class="cls-2" x="798.25" y="94.51" width="8.7" height="7.25" transform="translate(1605.21 196.27) rotate(-180)"/><rect class="cls-5" x="798.25" y="101.76" width="8.7" height="7.25" transform="translate(1605.21 210.77) rotate(-180)"/><rect class="cls-2" x="798.25" y="109.01" width="8.7" height="7.25" transform="translate(1605.21 225.28) rotate(-180)"/><rect class="cls-7" x="798.25" y="116.27" width="8.7" height="7.25" transform="translate(1605.21 239.79) rotate(-180)"/><rect class="cls-2" x="798.25" y="123.52" width="8.7" height="7.25" transform="translate(1605.21 254.3) rotate(-180)"/><rect class="cls-3" x="798.25" y="130.78" width="8.7" height="7.25" transform="translate(1605.21 268.81) rotate(-180)"/><rect class="cls-2" x="789.55" y="58.23" width="8.7" height="7.25" transform="translate(1587.8 123.72) rotate(-180)"/><rect class="cls-8" x="789.55" y="65.49" width="8.7" height="7.25" transform="translate(1587.8 138.23) rotate(-180)"/><rect class="cls-2" x="789.55" y="72.74" width="8.7" height="7.25" transform="translate(1587.8 152.74) rotate(-180)"/><rect class="cls-2" x="789.55" y="80" width="8.7" height="7.25" transform="translate(1587.8 167.25) rotate(-180)"/><rect class="cls-2" x="789.55" y="87.25" width="8.7" height="7.25" transform="translate(1587.8 181.76) rotate(-180)"/><rect class="cls-2" x="789.55" y="94.51" width="8.7" height="7.25" transform="translate(1587.8 196.27) rotate(-180)"/><rect class="cls-2" x="789.55" y="101.76" width="8.7" height="7.25" transform="translate(1587.8 210.77) rotate(-180)"/><rect class="cls-2" x="789.55" y="109.01" width="8.7" height="7.25" transform="translate(1587.8 225.28) rotate(-180)"/><rect class="cls-2" x="789.55" y="116.27" width="8.7" height="7.25" transform="translate(1587.8 239.79) rotate(-180)"/><rect class="cls-2" x="789.55" y="123.52" width="8.7" height="7.25" transform="translate(1587.8 254.3) rotate(-180)"/><rect class="cls-2" x="789.55" y="130.78" width="8.7" height="7.25" transform="translate(1587.8 268.81) rotate(-180)"/><rect class="cls-3" x="780.85" y="58.23" width="8.7" height="7.25" transform="translate(1570.4 123.72) rotate(-180)"/><rect class="cls-2" x="780.85" y="65.49" width="8.7" height="7.25" transform="translate(1570.4 138.23) rotate(-180)"/><rect class="cls-7" x="780.85" y="72.74" width="8.7" height="7.25" transform="translate(1570.4 152.74) rotate(-180)"/><rect class="cls-2" x="780.85" y="80" width="8.7" height="7.25" transform="translate(1570.4 167.25) rotate(-180)"/><rect class="cls-2" x="780.85" y="87.25" width="8.7" height="7.25" transform="translate(1570.4 181.76) rotate(-180)"/><rect class="cls-3" x="780.85" y="94.51" width="8.7" height="7.25" transform="translate(1570.4 196.27) rotate(-180)"/><rect class="cls-2" x="780.85" y="101.76" width="8.7" height="7.25" transform="translate(1570.4 210.77) rotate(-180)"/><rect class="cls-3" x="780.85" y="109.01" width="8.7" height="7.25" transform="translate(1570.4 225.28) rotate(-180)"/><rect class="cls-2" x="780.85" y="116.27" width="8.7" height="7.25" transform="translate(1570.4 239.79) rotate(-180)"/><rect class="cls-2" x="780.85" y="123.52" width="8.7" height="7.25" transform="translate(1570.4 254.3) rotate(-180)"/><rect class="cls-2" x="780.85" y="130.78" width="8.7" height="7.25" transform="translate(1570.4 268.81) rotate(-180)"/><rect class="cls-2" x="772.15" y="58.23" width="8.7" height="7.25" transform="translate(1553 123.72) rotate(-180)"/><rect class="cls-7" x="772.15" y="65.49" width="8.7" height="7.25" transform="translate(1553 138.23) rotate(-180)"/><rect class="cls-2" x="772.15" y="72.74" width="8.7" height="7.25" transform="translate(1553 152.74) rotate(-180)"/><rect class="cls-7" x="772.15" y="80" width="8.7" height="7.25" transform="translate(1553 167.25) rotate(-180)"/><rect class="cls-2" x="772.15" y="87.25" width="8.7" height="7.25" transform="translate(1553 181.76) rotate(-180)"/><rect class="cls-2" x="772.15" y="94.51" width="8.7" height="7.25" transform="translate(1553 196.27) rotate(-180)"/><rect class="cls-2" x="772.15" y="101.76" width="8.7" height="7.25" transform="translate(1553 210.77) rotate(-180)"/><rect class="cls-7" x="772.15" y="109.01" width="8.7" height="7.25" transform="translate(1553 225.28) rotate(-180)"/><rect class="cls-2" x="772.15" y="116.27" width="8.7" height="7.25" transform="translate(1553 239.79) rotate(-180)"/><rect class="cls-7" x="772.15" y="123.52" width="8.7" height="7.25" transform="translate(1553 254.3) rotate(-180)"/><rect class="cls-9" x="772.15" y="130.78" width="8.7" height="7.25" transform="translate(1553 268.81) rotate(-180)"/><rect class="cls-1" x="772.15" y="138.03" width="8.7" height="7.25"/><rect class="cls-2" x="780.85" y="138.03" width="8.7" height="7.25"/><rect class="cls-3" x="789.85" y="138.03" width="8.7" height="7.25"/><rect class="cls-2" x="798.25" y="138.03" width="8.7" height="7.25"/><rect class="cls-7" x="806.95" y="138.03" width="8.7" height="7.25"/><rect class="cls-2" x="815.65" y="138.03" width="8.7" height="7.25"/><rect class="cls-2" x="824.36" y="138.03" width="8.7" height="7.25"/><rect class="cls-3" x="833.06" y="138.03" width="8.7" height="7.25"/><rect class="cls-2" x="841.76" y="138.03" width="8.7" height="7.25"/><rect class="cls-7" x="850.69" y="138.03" width="8.7" height="7.25"/><rect class="cls-2" x="859.16" y="138.03" width="8.7" height="7.25"/><rect class="cls-5" x="867.86" y="138.03" width="8.7" height="7.25"/><rect class="cls-2" x="876.56" y="138.03" width="8.7" height="7.25"/><rect class="cls-2" x="885.27" y="138.03" width="8.7" height="7.25"/><rect class="cls-2" x="893.97" y="138.03" width="8.7" height="7.25"/><text class="cls-10" transform="translate(751 50.36)">Data in high dimensions</text><polyline class="cls-16" points="1049.86 146.42 971.53 146.42 971.53 68.09"/><circle class="cls-13" cx="996.51" cy="83.97" r="2.67"/><circle class="cls-13" cx="980.7" cy="79.42" r="2.67"/><circle class="cls-13" cx="978.65" cy="88.1" r="2.67"/><circle class="cls-14" cx="1028.39" cy="65.88" r="2.67"/><circle class="cls-13" cx="980.7" cy="94.63" r="2.67"/><circle class="cls-13" cx="986.94" cy="84.42" r="2.67"/><circle class="cls-13" cx="986.94" cy="91.49" r="2.67"/><circle class="cls-13" cx="976.18" cy="99.65" r="2.67"/><circle class="cls-13" cx="982.75" cy="102.27" r="2.67"/><circle class="cls-14" cx="1037.04" cy="77.97" r="2.67"/><circle class="cls-14" cx="1039.21" cy="86.24" r="2.67"/><circle class="cls-14" cx="1030.95" cy="82.89" r="2.67"/><circle class="cls-14" cx="1027.77" cy="76.55" r="2.67"/><circle class="cls-13" cx="997.93" cy="97.05" r="2.67"/><circle class="cls-14" cx="1033.33" cy="91.65" r="2.67"/><circle class="cls-14" cx="1026.34" cy="90.57" r="2.67"/><circle class="cls-13" cx="993.66" cy="91.82" r="2.67"/><circle class="cls-13" cx="990.07" cy="97.92" r="2.67"/><circle class="cls-13" cx="984.57" cy="108.48" r="2.67"/><circle class="cls-13" cx="992.41" cy="105.08" r="2.67"/><circle class="cls-13" cx="990.35" cy="113.76" r="2.67"/><circle class="cls-13" cx="984.57" cy="117.86" r="2.67"/><circle class="cls-13" cx="992.41" cy="120.29" r="2.67"/><circle class="cls-13" cx="998.65" cy="110.08" r="2.67"/><circle class="cls-13" cx="998.65" cy="117.15" r="2.67"/><circle class="cls-13" cx="987.88" cy="125.3" r="2.67"/><circle class="cls-13" cx="994.46" cy="127.92" r="2.67"/><circle class="cls-13" cx="1005.19" cy="112.59" r="2.67"/><circle class="cls-15" cx="1028.39" cy="114.45" r="2.65"/><circle class="cls-15" cx="1026.35" cy="123.07" r="2.65"/><circle class="cls-13" cx="1005.19" cy="121.96" r="2.67"/><circle class="cls-15" cx="1028.39" cy="129.56" r="2.65"/><circle class="cls-15" cx="1034.59" cy="119.65" r="2.67"/><circle class="cls-15" cx="1034.59" cy="126.72" r="2.67"/><circle class="cls-13" cx="1008.51" cy="129.41" r="2.67"/><circle class="cls-15" cx="1030.43" cy="137.14" r="2.65"/><circle class="cls-14" cx="1055.23" cy="69.37" r="2.65"/><circle class="cls-14" cx="1055.85" cy="77.84" r="2.65"/><circle class="cls-14" cx="1048.4" cy="73.11" r="2.67"/><circle class="cls-14" cx="1046.43" cy="66.3" r="2.67"/><circle class="cls-14" cx="1041.56" cy="72.9" r="2.67"/><circle class="cls-14" cx="1049.13" cy="82.06" r="2.65"/><circle class="cls-14" cx="1042.47" cy="79.83" r="2.67"/><circle class="cls-14" cx="1038.31" cy="66.98" r="2.67"/><circle class="cls-14" cx="1033.67" cy="72.32" r="2.67"/><circle class="cls-15" cx="1056.3" cy="113.74" r="2.67"/><circle class="cls-15" cx="1054.52" cy="122.1" r="2.67"/><circle class="cls-15" cx="1048.65" cy="115.39" r="2.67"/><circle class="cls-14" cx="1059.6" cy="89.71" r="2.67"/><circle class="cls-15" cx="1042.14" cy="113.28" r="2.67"/><circle class="cls-15" cx="1046.83" cy="124.29" r="2.67"/><circle class="cls-15" cx="1041.07" cy="120.18" r="2.67"/><circle class="cls-14" cx="1051.61" cy="88.09" r="2.67"/><circle class="cls-14" cx="1045.67" cy="91.76" r="2.65"/><circle class="cls-15" cx="1050.11" cy="132.57" r="2.67"/><circle class="cls-15" cx="1042.27" cy="129.17" r="2.67"/><circle class="cls-15" cx="1044.33" cy="137.84" r="2.67"/><circle class="cls-14" cx="1057.77" cy="83.56" r="2.67"/><circle class="cls-14" cx="1065.92" cy="86.52" r="2.67"/><circle class="cls-15" cx="1036.03" cy="134.16" r="2.67"/><circle class="cls-15" cx="1036.03" cy="141.23" r="2.67"/><circle class="cls-13" cx="1000.7" cy="126.64" r="2.67"/><circle class="cls-13" cx="977.93" cy="118.25" r="2.67"/><text class="cls-10" transform="translate(961 50.36)">2D embedding</text><line class="cls-12" x1="837.67" y1="151.29" x2="837.67" y2="162.11"/><polygon points="832.69 160.65 837.67 169.29 842.66 160.65 832.69 160.65"/><circle class="cls-13" cx="782.28" cy="228.05" r="6"/><circle class="cls-13" cx="811.67" cy="243.26" r="6"/><circle class="cls-13" cx="838.48" cy="220.69" r="6"/><circle class="cls-13" cx="855.26" cy="248.1" r="6"/><circle class="cls-13" cx="888.07" cy="233.53" r="6"/><line class="cls-12" x1="794.27" y1="235.05" x2="799.11" y2="237.76"/><polygon points="796.88 239.94 802.87 239.86 799.81 234.72 796.88 239.94"/><line class="cls-12" x1="821.27" y1="236.07" x2="827.43" y2="231.46"/><polygon points="828.52 234.38 830.88 228.88 824.94 229.59 828.52 234.38"/><line class="cls-12" x1="844.48" y1="228.69" x2="848.64" y2="236.5"/><polygon points="845.59 237.13 850.67 240.3 850.87 234.32 845.59 237.13"/><line class="cls-12" x1="864.26" y1="245.11" x2="876.83" y2="240.42"/><polygon points="877.06 243.53 880.87 238.92 874.97 237.93 877.06 243.53"/><text class="cls-10" transform="translate(771.33 193.25)">Geodesic distance</text><text class="cls-10" transform="translate(944.66 193.25)">Euclidean distance</text><line class="cls-12" x1="1012.67" y1="151.29" x2="1012.67" y2="162.11"/><polygon points="1007.69 160.65 1012.67 169.29 1017.66 160.65 1007.69 160.65"/><circle class="cls-13" cx="962.31" cy="234.34" r="6"/><circle class="cls-17" cx="986.5" cy="248.9" r="6"/><circle class="cls-17" cx="1013.63" cy="226.7" r="6"/><circle class="cls-17" cx="1030.02" cy="254.34" r="6"/><circle class="cls-13" cx="1063.04" cy="240.23" r="6"/><line class="cls-12" x1="966.61" y1="234.59" x2="969.61" y2="234.77"/><line class="cls-18" x1="975.35" y1="235.1" x2="1052.87" y2="239.64"/><line class="cls-12" x1="1055.74" y1="239.8" x2="1058.74" y2="239.98"/><polygon points="967.31 237.63 962.31 234.34 967.66 231.66 967.31 237.63"/><polygon points="1057.69 242.91 1063.04 240.23 1058.04 236.94 1057.69 242.91"/><text class="cls-10" transform="translate(920.01 220.78)">vs.</text><text class="cls-11" transform="translate(880.91 20.59)">DEMa<tspan class="cls-19" x="66.68" y="0">P</tspan></text><line class="cls-12" x1="923.67" y1="101.76" x2="934.5" y2="101.76"/><polygon points="933.04 106.75 941.67 101.76 933.04 96.77 933.04 106.75"/><rect class="cls-1" x="142.97" y="57.23" width="8.7" height="7.25" transform="translate(294.64 121.72) rotate(-180)"/><rect class="cls-2" x="142.97" y="64.49" width="8.7" height="7.25" transform="translate(294.64 136.23) rotate(-180)"/><rect class="cls-2" x="142.97" y="71.74" width="8.7" height="7.25" transform="translate(294.64 150.74) rotate(-180)"/><rect class="cls-3" x="142.97" y="79" width="8.7" height="7.25" transform="translate(294.64 165.25) rotate(-180)"/><rect class="cls-2" x="142.97" y="86.25" width="8.7" height="7.25" transform="translate(294.64 179.76) rotate(-180)"/><rect class="cls-4" x="142.97" y="93.51" width="8.7" height="7.25" transform="translate(294.64 194.27) rotate(-180)"/><rect class="cls-1" x="142.97" y="100.76" width="8.7" height="7.25" transform="translate(294.64 208.77) rotate(-180)"/><rect class="cls-2" x="142.97" y="108.01" width="8.7" height="7.25" transform="translate(294.64 223.28) rotate(-180)"/><rect class="cls-2" x="142.97" y="115.27" width="8.7" height="7.25" transform="translate(294.64 237.79) rotate(-180)"/><rect class="cls-3" x="142.97" y="122.52" width="8.7" height="7.25" transform="translate(294.64 252.3) rotate(-180)"/><rect class="cls-2" x="142.97" y="129.78" width="8.7" height="7.25" transform="translate(294.64 266.81) rotate(-180)"/><rect class="cls-5" x="134.27" y="57.23" width="8.7" height="7.25" transform="translate(277.23 121.72) rotate(-180)"/><rect class="cls-2" x="134.27" y="64.49" width="8.7" height="7.25" transform="translate(277.23 136.23) rotate(-180)"/><rect class="cls-4" x="134.27" y="71.74" width="8.7" height="7.25" transform="translate(277.23 150.74) rotate(-180)"/><rect class="cls-5" x="134.27" y="79" width="8.7" height="7.25" transform="translate(277.23 165.25) rotate(-180)"/><rect class="cls-2" x="134.27" y="86.25" width="8.7" height="7.25" transform="translate(277.23 179.76) rotate(-180)"/><rect class="cls-5" x="134.27" y="93.19" width="8.7" height="7.25" transform="translate(277.23 193.64) rotate(-180)"/><rect class="cls-2" x="134.27" y="100.76" width="8.7" height="7.25" transform="translate(277.23 208.77) rotate(-180)"/><rect class="cls-1" x="134.27" y="108.01" width="8.7" height="7.25" transform="translate(277.23 223.28) rotate(-180)"/><rect class="cls-2" x="134.27" y="115.27" width="8.7" height="7.25" transform="translate(277.23 237.79) rotate(-180)"/><rect class="cls-5" x="134.27" y="122.52" width="8.7" height="7.25" transform="translate(277.23 252.3) rotate(-180)"/><rect class="cls-5" x="134.27" y="129.78" width="8.7" height="7.25" transform="translate(277.23 266.81) rotate(-180)"/><rect class="cls-2" x="125.56" y="57.23" width="8.7" height="7.25" transform="translate(259.83 121.72) rotate(-180)"/><rect class="cls-6" x="125.56" y="64.49" width="8.7" height="7.25" transform="translate(259.83 136.23) rotate(-180)"/><rect class="cls-2" x="125.56" y="71.74" width="8.7" height="7.25" transform="translate(259.83 150.74) rotate(-180)"/><rect class="cls-2" x="125.56" y="79" width="8.7" height="7.25" transform="translate(259.83 165.25) rotate(-180)"/><rect class="cls-2" x="125.56" y="86.25" width="8.7" height="7.25" transform="translate(259.83 179.76) rotate(-180)"/><rect class="cls-6" x="125.56" y="93.51" width="8.7" height="7.25" transform="translate(259.83 194.27) rotate(-180)"/><rect class="cls-3" x="125.27" y="100.76" width="8.7" height="7.25" transform="translate(259.24 208.77) rotate(-180)"/><rect class="cls-2" x="125.56" y="108.01" width="8.7" height="7.25" transform="translate(259.83 223.28) rotate(-180)"/><rect class="cls-6" x="125.56" y="115.27" width="8.7" height="7.25" transform="translate(259.83 237.79) rotate(-180)"/><rect class="cls-1" x="125.56" y="122.52" width="8.7" height="7.25" transform="translate(259.83 252.3) rotate(-180)"/><rect class="cls-2" x="125.56" y="129.78" width="8.7" height="7.25" transform="translate(259.83 266.81) rotate(-180)"/><rect class="cls-4" x="116.86" y="57.23" width="8.7" height="7.25" transform="translate(242.43 121.72) rotate(-180)"/><rect class="cls-2" x="116.86" y="64.49" width="8.7" height="7.25" transform="translate(242.43 136.23) rotate(-180)"/><rect class="cls-3" x="116.86" y="71.74" width="8.7" height="7.25" transform="translate(242.43 150.74) rotate(-180)"/><rect class="cls-2" x="116.86" y="79" width="8.7" height="7.25" transform="translate(242.43 165.25) rotate(-180)"/><rect class="cls-5" x="116.86" y="86.25" width="8.7" height="7.25" transform="translate(242.43 179.76) rotate(-180)"/><rect class="cls-2" x="116.86" y="93.51" width="8.7" height="7.25" transform="translate(242.43 194.27) rotate(-180)"/><rect class="cls-2" x="116.86" y="100.76" width="8.7" height="7.25" transform="translate(242.43 208.77) rotate(-180)"/><rect class="cls-2" x="116.86" y="108.01" width="8.7" height="7.25" transform="translate(242.43 223.28) rotate(-180)"/><rect class="cls-2" x="116.86" y="115.27" width="8.7" height="7.25" transform="translate(242.43 237.79) rotate(-180)"/><rect class="cls-2" x="116.86" y="122.52" width="8.7" height="7.25" transform="translate(242.43 252.3) rotate(-180)"/><rect class="cls-2" x="116.86" y="129.78" width="8.7" height="7.25" transform="translate(242.43 266.81) rotate(-180)"/><rect class="cls-2" x="108.16" y="57.23" width="8.7" height="7.25" transform="translate(225.02 121.72) rotate(-180)"/><rect class="cls-2" x="108.16" y="64.49" width="8.7" height="7.25" transform="translate(225.02 136.23) rotate(-180)"/><rect class="cls-2" x="108.16" y="71.74" width="8.7" height="7.25" transform="translate(225.02 150.74) rotate(-180)"/><rect class="cls-2" x="108.16" y="79" width="8.7" height="7.25" transform="translate(225.02 165.25) rotate(-180)"/><rect class="cls-3" x="108.16" y="86.25" width="8.7" height="7.25" transform="translate(225.02 179.76) rotate(-180)"/><rect class="cls-7" x="108.16" y="93.51" width="8.7" height="7.25" transform="translate(225.02 194.27) rotate(-180)"/><rect class="cls-7" x="108.16" y="100.76" width="8.7" height="7.25" transform="translate(225.02 208.77) rotate(-180)"/><rect class="cls-2" x="108.16" y="108.01" width="8.7" height="7.25" transform="translate(225.02 223.28) rotate(-180)"/><rect class="cls-3" x="108.16" y="115.27" width="8.7" height="7.25" transform="translate(225.02 237.79) rotate(-180)"/><rect class="cls-2" x="108.16" y="122.52" width="8.7" height="7.25" transform="translate(225.02 252.3) rotate(-180)"/><rect class="cls-2" x="107.93" y="129.78" width="8.7" height="7.25" transform="translate(224.56 266.81) rotate(-180)"/><rect class="cls-2" x="99.46" y="57.23" width="8.7" height="7.25" transform="translate(207.62 121.72) rotate(-180)"/><rect class="cls-3" x="99.46" y="64.49" width="8.7" height="7.25" transform="translate(207.62 136.23) rotate(-180)"/><rect class="cls-2" x="99.46" y="71.74" width="8.7" height="7.25" transform="translate(207.62 150.74) rotate(-180)"/><rect class="cls-2" x="99.46" y="79" width="8.7" height="7.25" transform="translate(207.62 165.25) rotate(-180)"/><rect class="cls-2" x="99.46" y="86.25" width="8.7" height="7.25" transform="translate(207.62 179.76) rotate(-180)"/><rect class="cls-2" x="99.46" y="93.51" width="8.7" height="7.25" transform="translate(207.62 194.27) rotate(-180)"/><rect class="cls-2" x="99.46" y="100.76" width="8.7" height="7.25" transform="translate(207.62 208.77) rotate(-180)"/><rect class="cls-8" x="99.46" y="108.01" width="8.7" height="7.25" transform="translate(207.62 223.28) rotate(-180)"/><rect class="cls-2" x="99.46" y="115.27" width="8.7" height="7.25" transform="translate(207.62 237.79) rotate(-180)"/><rect class="cls-7" x="99.46" y="122.52" width="8.7" height="7.25" transform="translate(207.62 252.3) rotate(-180)"/><rect class="cls-2" x="99.46" y="129.78" width="8.7" height="7.25" transform="translate(207.62 266.81) rotate(-180)"/><rect class="cls-1" x="90.76" y="57.23" width="8.7" height="7.25" transform="translate(190.22 121.72) rotate(-180)"/><rect class="cls-2" x="90.76" y="64.49" width="8.7" height="7.25" transform="translate(190.22 136.23) rotate(-180)"/><rect class="cls-2" x="90.76" y="71.74" width="8.7" height="7.25" transform="translate(190.22 150.74) rotate(-180)"/><rect class="cls-3" x="90.76" y="79" width="8.7" height="7.25" transform="translate(190.22 165.25) rotate(-180)"/><rect class="cls-1" x="90.76" y="86.25" width="8.7" height="7.25" transform="translate(190.22 179.76) rotate(-180)"/><rect class="cls-2" x="90.76" y="93.51" width="8.7" height="7.25" transform="translate(190.22 194.27) rotate(-180)"/><rect class="cls-2" x="90.76" y="100.76" width="8.7" height="7.25" transform="translate(190.22 208.77) rotate(-180)"/><rect class="cls-5" x="90.76" y="108.01" width="8.7" height="7.25" transform="translate(190.22 223.28) rotate(-180)"/><rect class="cls-2" x="90.76" y="115.27" width="8.7" height="7.25" transform="translate(190.22 237.79) rotate(-180)"/><rect class="cls-2" x="90.76" y="122.52" width="8.7" height="7.25" transform="translate(190.22 252.3) rotate(-180)"/><rect class="cls-7" x="90.76" y="129.78" width="8.7" height="7.25" transform="translate(190.22 266.81) rotate(-180)"/><rect class="cls-1" x="82.06" y="57.23" width="8.7" height="7.25" transform="translate(172.82 121.72) rotate(-180)"/><rect class="cls-2" x="82.06" y="64.49" width="8.7" height="7.25" transform="translate(172.82 136.23) rotate(-180)"/><rect class="cls-2" x="82.06" y="71.74" width="8.7" height="7.25" transform="translate(172.82 150.74) rotate(-180)"/><rect class="cls-2" x="82.06" y="79" width="8.7" height="7.25" transform="translate(172.82 165.25) rotate(-180)"/><rect class="cls-2" x="81.82" y="86.25" width="8.7" height="7.25" transform="translate(172.35 179.76) rotate(-180)"/><rect class="cls-2" x="82.06" y="93.51" width="8.7" height="7.25" transform="translate(172.82 194.27) rotate(-180)"/><rect class="cls-3" x="82.06" y="100.76" width="8.7" height="7.25" transform="translate(172.82 208.77) rotate(-180)"/><rect class="cls-2" x="82.06" y="108.01" width="8.7" height="7.25" transform="translate(172.82 223.28) rotate(-180)"/><rect class="cls-9" x="82.06" y="115.27" width="8.7" height="7.25" transform="translate(172.82 237.79) rotate(-180)"/><rect class="cls-2" x="82.06" y="122.52" width="8.7" height="7.25" transform="translate(172.82 252.3) rotate(-180)"/><rect class="cls-2" x="82.06" y="129.78" width="8.7" height="7.25" transform="translate(172.82 266.81) rotate(-180)"/><rect class="cls-2" x="73.36" y="57.23" width="8.7" height="7.25" transform="translate(155.41 121.72) rotate(-180)"/><rect class="cls-1" x="73.36" y="64.49" width="8.7" height="7.25" transform="translate(155.41 136.23) rotate(-180)"/><rect class="cls-2" x="73.36" y="71.74" width="8.7" height="7.25" transform="translate(155.41 150.74) rotate(-180)"/><rect class="cls-2" x="73.36" y="79" width="8.7" height="7.25" transform="translate(155.41 165.25) rotate(-180)"/><rect class="cls-2" x="73.36" y="86.25" width="8.7" height="7.25" transform="translate(155.41 179.76) rotate(-180)"/><rect class="cls-7" x="73.36" y="93.51" width="8.7" height="7.25" transform="translate(155.41 194.27) rotate(-180)"/><rect class="cls-2" x="73.36" y="100.76" width="8.7" height="7.25" transform="translate(155.41 208.77) rotate(-180)"/><rect class="cls-5" x="73.36" y="108.01" width="8.7" height="7.25" transform="translate(155.41 223.28) rotate(-180)"/><rect class="cls-2" x="73.36" y="115.27" width="8.7" height="7.25" transform="translate(155.41 237.79) rotate(-180)"/><rect class="cls-3" x="73.36" y="122.52" width="8.7" height="7.25" transform="translate(155.41 252.3) rotate(-180)"/><rect class="cls-6" x="73.36" y="129.78" width="8.7" height="7.25" transform="translate(155.41 266.81) rotate(-180)"/><rect class="cls-2" x="64.65" y="57.23" width="8.7" height="7.25" transform="translate(138.01 121.72) rotate(-180)"/><rect class="cls-3" x="64.65" y="64.49" width="8.7" height="7.25" transform="translate(138.01 136.23) rotate(-180)"/><rect class="cls-2" x="64.65" y="71.74" width="8.7" height="7.25" transform="translate(138.01 150.74) rotate(-180)"/><rect class="cls-3" x="64.65" y="79" width="8.7" height="7.25" transform="translate(138.01 165.25) rotate(-180)"/><rect class="cls-2" x="64.65" y="86.25" width="8.7" height="7.25" transform="translate(138.01 179.76) rotate(-180)"/><rect class="cls-2" x="64.65" y="93.51" width="8.7" height="7.25" transform="translate(138.01 194.27) rotate(-180)"/><rect class="cls-7" x="64.42" y="100.76" width="8.7" height="7.25" transform="translate(137.54 208.77) rotate(-180)"/><rect class="cls-5" x="64.65" y="108.01" width="8.7" height="7.25" transform="translate(138.01 223.28) rotate(-180)"/><rect class="cls-2" x="64.65" y="115.27" width="8.7" height="7.25" transform="translate(138.01 237.79) rotate(-180)"/><rect class="cls-2" x="64.65" y="122.52" width="8.7" height="7.25" transform="translate(138.01 252.3) rotate(-180)"/><rect class="cls-2" x="64.65" y="129.78" width="8.7" height="7.25" transform="translate(138.01 266.81) rotate(-180)"/><rect class="cls-8" x="55.95" y="57.23" width="8.7" height="7.25" transform="translate(120.61 121.72) rotate(-180)"/><rect class="cls-2" x="55.95" y="64.49" width="8.7" height="7.25" transform="translate(120.61 136.23) rotate(-180)"/><rect class="cls-2" x="55.95" y="71.74" width="8.7" height="7.25" transform="translate(120.61 150.74) rotate(-180)"/><rect class="cls-7" x="55.95" y="79" width="8.7" height="7.25" transform="translate(120.61 165.25) rotate(-180)"/><rect class="cls-2" x="55.95" y="86.25" width="8.7" height="7.25" transform="translate(120.61 179.76) rotate(-180)"/><rect class="cls-8" x="55.95" y="93.51" width="8.7" height="7.25" transform="translate(120.61 194.27) rotate(-180)"/><rect class="cls-2" x="55.95" y="100.76" width="8.7" height="7.25" transform="translate(120.61 208.77) rotate(-180)"/><rect class="cls-2" x="55.95" y="108.01" width="8.7" height="7.25" transform="translate(120.61 223.28) rotate(-180)"/><rect class="cls-2" x="55.95" y="115.27" width="8.7" height="7.25" transform="translate(120.61 237.79) rotate(-180)"/><rect class="cls-2" x="55.95" y="122.52" width="8.7" height="7.25" transform="translate(120.61 252.3) rotate(-180)"/><rect class="cls-6" x="55.95" y="129.78" width="8.7" height="7.25" transform="translate(120.61 266.81) rotate(-180)"/><rect class="cls-2" x="47.25" y="57.23" width="8.7" height="7.25" transform="translate(103.21 121.72) rotate(-180)"/><rect class="cls-2" x="47.25" y="64.49" width="8.7" height="7.25" transform="translate(103.21 136.23) rotate(-180)"/><rect class="cls-3" x="47.25" y="71.74" width="8.7" height="7.25" transform="translate(103.21 150.74) rotate(-180)"/><rect class="cls-2" x="47.25" y="79" width="8.7" height="7.25" transform="translate(103.21 165.25) rotate(-180)"/><rect class="cls-6" x="47.25" y="86.25" width="8.7" height="7.25" transform="translate(103.21 179.76) rotate(-180)"/><rect class="cls-2" x="47.25" y="93.51" width="8.7" height="7.25" transform="translate(103.21 194.27) rotate(-180)"/><rect class="cls-5" x="47.25" y="100.76" width="8.7" height="7.25" transform="translate(103.21 208.77) rotate(-180)"/><rect class="cls-2" x="47.25" y="108.01" width="8.7" height="7.25" transform="translate(103.21 223.28) rotate(-180)"/><rect class="cls-7" x="47.25" y="115.27" width="8.7" height="7.25" transform="translate(103.21 237.79) rotate(-180)"/><rect class="cls-2" x="47.25" y="122.52" width="8.7" height="7.25" transform="translate(103.21 252.3) rotate(-180)"/><rect class="cls-3" x="47.25" y="129.78" width="8.7" height="7.25" transform="translate(103.21 266.81) rotate(-180)"/><rect class="cls-2" x="38.55" y="57.23" width="8.7" height="7.25" transform="translate(85.8 121.72) rotate(-180)"/><rect class="cls-8" x="38.55" y="64.49" width="8.7" height="7.25" transform="translate(85.8 136.23) rotate(-180)"/><rect class="cls-2" x="38.55" y="71.74" width="8.7" height="7.25" transform="translate(85.8 150.74) rotate(-180)"/><rect class="cls-2" x="38.55" y="79" width="8.7" height="7.25" transform="translate(85.8 165.25) rotate(-180)"/><rect class="cls-2" x="38.55" y="86.25" width="8.7" height="7.25" transform="translate(85.8 179.76) rotate(-180)"/><rect class="cls-2" x="38.55" y="93.51" width="8.7" height="7.25" transform="translate(85.8 194.27) rotate(-180)"/><rect class="cls-2" x="38.55" y="100.76" width="8.7" height="7.25" transform="translate(85.8 208.77) rotate(-180)"/><rect class="cls-2" x="38.55" y="108.01" width="8.7" height="7.25" transform="translate(85.8 223.28) rotate(-180)"/><rect class="cls-2" x="38.55" y="115.27" width="8.7" height="7.25" transform="translate(85.8 237.79) rotate(-180)"/><rect class="cls-2" x="38.55" y="122.52" width="8.7" height="7.25" transform="translate(85.8 252.3) rotate(-180)"/><rect class="cls-2" x="38.55" y="129.78" width="8.7" height="7.25" transform="translate(85.8 266.81) rotate(-180)"/><rect class="cls-3" x="29.85" y="57.23" width="8.7" height="7.25" transform="translate(68.4 121.72) rotate(-180)"/><rect class="cls-2" x="29.85" y="64.49" width="8.7" height="7.25" transform="translate(68.4 136.23) rotate(-180)"/><rect class="cls-7" x="29.85" y="71.74" width="8.7" height="7.25" transform="translate(68.4 150.74) rotate(-180)"/><rect class="cls-2" x="29.85" y="79" width="8.7" height="7.25" transform="translate(68.4 165.25) rotate(-180)"/><rect class="cls-2" x="29.85" y="86.25" width="8.7" height="7.25" transform="translate(68.4 179.76) rotate(-180)"/><rect class="cls-3" x="29.85" y="93.51" width="8.7" height="7.25" transform="translate(68.4 194.27) rotate(-180)"/><rect class="cls-2" x="29.85" y="100.76" width="8.7" height="7.25" transform="translate(68.4 208.77) rotate(-180)"/><rect class="cls-3" x="29.85" y="108.01" width="8.7" height="7.25" transform="translate(68.4 223.28) rotate(-180)"/><rect class="cls-2" x="29.85" y="115.27" width="8.7" height="7.25" transform="translate(68.4 237.79) rotate(-180)"/><rect class="cls-2" x="29.85" y="122.52" width="8.7" height="7.25" transform="translate(68.4 252.3) rotate(-180)"/><rect class="cls-2" x="29.85" y="129.78" width="8.7" height="7.25" transform="translate(68.4 266.81) rotate(-180)"/><rect class="cls-2" x="21.15" y="57.23" width="8.7" height="7.25" transform="translate(51 121.72) rotate(-180)"/><rect class="cls-7" x="21.15" y="64.49" width="8.7" height="7.25" transform="translate(51 136.23) rotate(-180)"/><rect class="cls-2" x="21.15" y="71.74" width="8.7" height="7.25" transform="translate(51 150.74) rotate(-180)"/><rect class="cls-7" x="21.15" y="79" width="8.7" height="7.25" transform="translate(51 165.25) rotate(-180)"/><rect class="cls-2" x="21.15" y="86.25" width="8.7" height="7.25" transform="translate(51 179.76) rotate(-180)"/><rect class="cls-2" x="21.15" y="93.51" width="8.7" height="7.25" transform="translate(51 194.27) rotate(-180)"/><rect class="cls-2" x="21.15" y="100.76" width="8.7" height="7.25" transform="translate(51 208.77) rotate(-180)"/><rect class="cls-7" x="21.15" y="108.01" width="8.7" height="7.25" transform="translate(51 223.28) rotate(-180)"/><rect class="cls-2" x="21.15" y="115.27" width="8.7" height="7.25" transform="translate(51 237.79) rotate(-180)"/><rect class="cls-7" x="21.15" y="122.52" width="8.7" height="7.25" transform="translate(51 252.3) rotate(-180)"/><rect class="cls-9" x="21.15" y="129.78" width="8.7" height="7.25" transform="translate(51 266.81) rotate(-180)"/><rect class="cls-1" x="21.15" y="137.03" width="8.7" height="7.25"/><rect class="cls-2" x="29.85" y="137.03" width="8.7" height="7.25"/><rect class="cls-3" x="38.85" y="137.03" width="8.7" height="7.25"/><rect class="cls-2" x="47.25" y="137.03" width="8.7" height="7.25"/><rect class="cls-7" x="55.95" y="137.03" width="8.7" height="7.25"/><rect class="cls-2" x="64.65" y="137.03" width="8.7" height="7.25"/><rect class="cls-2" x="73.36" y="137.03" width="8.7" height="7.25"/><rect class="cls-3" x="82.06" y="137.03" width="8.7" height="7.25"/><rect class="cls-2" x="90.76" y="137.03" width="8.7" height="7.25"/><rect class="cls-7" x="99.69" y="137.03" width="8.7" height="7.25"/><rect class="cls-2" x="108.16" y="137.03" width="8.7" height="7.25"/><rect class="cls-5" x="116.86" y="137.03" width="8.7" height="7.25"/><rect class="cls-2" x="125.56" y="137.03" width="8.7" height="7.25"/><rect class="cls-2" x="134.27" y="137.03" width="8.7" height="7.25"/><rect class="cls-2" x="142.97" y="137.03" width="8.7" height="7.25"/><text class="cls-10" transform="translate(0 49.36)">Data in high dimensions</text><text class="cls-10" transform="translate(210 49.36)">2D embedding</text><text class="cls-11" transform="translate(56.91 21.59)">1-Nearest Neighbor</text><text class="cls-10" transform="translate(12.8 194.25)">Ground truth labels</text><line class="cls-12" x1="92.67" y1="152.29" x2="92.67" y2="163.11"/><polygon points="87.69 161.65 92.67 170.29 97.66 161.65 87.69 161.65"/><line class="cls-12" x1="264.67" y1="152.29" x2="264.67" y2="163.11"/><polygon points="259.69 161.65 264.68 170.29 269.66 161.65 259.69 161.65"/><text class="cls-10" transform="translate(193.84 194.25)">1-NN on embedding</text><polyline class="cls-16" points="298.86 144.29 220.53 144.29 220.53 65.95"/><circle class="cls-13" cx="245.51" cy="81.84" r="2.67"/><circle class="cls-13" cx="229.7" cy="77.29" r="2.67"/><circle class="cls-13" cx="227.65" cy="85.97" r="2.67"/><circle class="cls-14" cx="277.39" cy="63.75" r="2.67"/><circle class="cls-13" cx="229.7" cy="92.49" r="2.67"/><circle class="cls-13" cx="235.94" cy="82.28" r="2.67"/><circle class="cls-13" cx="235.94" cy="89.35" r="2.67"/><circle class="cls-13" cx="225.18" cy="97.51" r="2.67"/><circle class="cls-13" cx="231.75" cy="100.13" r="2.67"/><circle class="cls-14" cx="286.04" cy="75.84" r="2.67"/><circle class="cls-14" cx="288.21" cy="84.1" r="2.67"/><circle class="cls-14" cx="279.95" cy="80.75" r="2.67"/><circle class="cls-14" cx="276.77" cy="74.41" r="2.67"/><circle class="cls-13" cx="246.93" cy="94.91" r="2.67"/><circle class="cls-14" cx="282.33" cy="89.51" r="2.67"/><circle class="cls-14" cx="275.34" cy="88.44" r="2.67"/><circle class="cls-13" cx="242.66" cy="89.68" r="2.67"/><circle class="cls-13" cx="239.07" cy="95.78" r="2.67"/><circle class="cls-13" cx="233.57" cy="106.35" r="2.67"/><circle class="cls-13" cx="241.41" cy="102.94" r="2.67"/><circle class="cls-13" cx="239.35" cy="111.62" r="2.67"/><circle class="cls-13" cx="233.57" cy="115.73" r="2.67"/><circle class="cls-13" cx="241.41" cy="118.15" r="2.67"/><circle class="cls-13" cx="247.65" cy="107.94" r="2.67"/><circle class="cls-13" cx="247.65" cy="115.01" r="2.67"/><circle class="cls-13" cx="236.88" cy="123.17" r="2.67"/><circle class="cls-13" cx="243.46" cy="125.79" r="2.67"/><circle class="cls-13" cx="254.19" cy="110.45" r="2.67"/><circle class="cls-15" cx="277.39" cy="112.32" r="2.65"/><circle class="cls-15" cx="275.35" cy="120.94" r="2.65"/><circle class="cls-13" cx="254.19" cy="119.83" r="2.67"/><circle class="cls-15" cx="277.39" cy="127.42" r="2.65"/><circle class="cls-15" cx="283.59" cy="117.51" r="2.67"/><circle class="cls-15" cx="283.59" cy="124.58" r="2.67"/><circle class="cls-13" cx="257.51" cy="127.27" r="2.67"/><circle class="cls-15" cx="279.43" cy="135.01" r="2.65"/><circle class="cls-14" cx="304.23" cy="67.24" r="2.65"/><circle class="cls-14" cx="304.85" cy="75.7" r="2.65"/><circle class="cls-14" cx="297.4" cy="70.98" r="2.67"/><circle class="cls-14" cx="295.43" cy="64.16" r="2.67"/><circle class="cls-14" cx="290.56" cy="70.76" r="2.67"/><circle class="cls-14" cx="298.13" cy="79.92" r="2.65"/><circle class="cls-14" cx="291.47" cy="77.69" r="2.67"/><circle class="cls-14" cx="287.31" cy="64.84" r="2.67"/><circle class="cls-14" cx="282.67" cy="70.18" r="2.67"/><circle class="cls-15" cx="305.3" cy="111.61" r="2.67"/><circle class="cls-15" cx="303.52" cy="119.97" r="2.67"/><circle class="cls-15" cx="297.65" cy="113.26" r="2.67"/><circle class="cls-14" cx="308.6" cy="87.57" r="2.67"/><circle class="cls-15" cx="291.14" cy="111.14" r="2.67"/><circle class="cls-15" cx="295.83" cy="122.15" r="2.67"/><circle class="cls-15" cx="290.07" cy="118.05" r="2.67"/><circle class="cls-14" cx="300.61" cy="85.95" r="2.67"/><circle class="cls-14" cx="294.67" cy="89.62" r="2.65"/><circle class="cls-15" cx="299.11" cy="130.44" r="2.67"/><circle class="cls-15" cx="291.27" cy="127.03" r="2.67"/><circle class="cls-15" cx="293.33" cy="135.71" r="2.67"/><circle class="cls-14" cx="306.77" cy="81.42" r="2.67"/><circle class="cls-14" cx="314.92" cy="84.39" r="2.67"/><circle class="cls-15" cx="285.03" cy="132.03" r="2.67"/><circle class="cls-15" cx="285.03" cy="139.1" r="2.67"/><circle class="cls-13" cx="249.7" cy="124.51" r="2.67"/><circle class="cls-13" cx="226.93" cy="116.12" r="2.67"/><text class="cls-10" transform="translate(165.01 211.78)">vs.</text><line class="cls-12" x1="175.67" y1="100.76" x2="186.5" y2="100.76"/><polygon points="185.04 105.75 193.68 100.76 185.04 95.77 185.04 105.75"/><circle class="cls-13" cx="34.31" cy="232.76" r="7.63"/><circle class="cls-13" cx="56.06" cy="253.27" r="7.63"/><circle class="cls-13" cx="81.66" cy="225.04" r="7.63"/><ellipse class="cls-14" cx="98.7" cy="251.25" rx="7.63" ry="7.67"/><circle class="cls-15" cx="130.04" cy="241.04" r="7.63"/><circle class="cls-13" cx="220.31" cy="226.76" r="7.63"/><circle class="cls-13" cx="242.06" cy="247.27" r="7.63"/><circle class="cls-17" cx="267.66" cy="219.04" r="7.63"/><ellipse class="cls-14" cx="284.7" cy="245.25" rx="7.63" ry="7.67"/><circle class="cls-15" cx="316.04" cy="235.04" r="7.63"/><line class="cls-20" x1="267.67" y1="219.29" x2="280.21" y2="238.29"/><polygon points="276.49 239.44 283.18 242.79 282.73 235.32 276.49 239.44"/></svg>